<svg width="132" height="14" viewBox="0 0 132 14" fill="none" xmlns="http://www.w3.org/2000/svg">
<g opacity="0.65">
<g clip-path="url(#clip0_159_2039)">
<path d="M39.1586 0.825195C35.6853 0.825195 32.8672 3.5386 32.8672 6.88738C32.8672 10.4479 35.5629 13.1093 39.1586 13.1093C42.6647 13.1093 45.433 10.4126 45.433 6.95734C45.433 3.52253 42.6832 0.825195 39.1586 0.825195Z" fill="url(#paint0_linear_159_2039)"/>
<g filter="url(#filter0_i_159_2039)">
<path d="M39.1586 0.825195C35.6853 0.825195 32.8672 3.5386 32.8672 6.88738C32.8672 10.4479 35.5629 13.1093 39.1586 13.1093C42.6647 13.1093 45.433 10.4126 45.433 6.95734C45.433 3.52253 42.6832 0.825195 39.1586 0.825195Z" fill="black"/>
</g>
<path d="M3.44181 1.04682H0.0595703V12.8439H3.42414C5.20932 12.8439 6.50035 12.421 7.63292 11.4828C8.97666 10.3683 9.77352 8.68781 9.77352 6.95099C9.77352 3.4681 7.17164 1.04682 3.44181 1.04682ZM6.13161 9.90714C5.40441 10.5632 4.46808 10.8468 2.98009 10.8468H2.36195V3.04447H2.98009C4.46808 3.04447 5.36849 3.31009 6.13161 3.99919C6.92745 4.70684 7.40206 5.80263 7.40206 6.93419C7.40206 8.06822 6.92745 9.20224 6.13161 9.90714ZM10.8357 12.8439H13.1345V1.04682H10.836L10.8357 12.8439ZM18.762 5.57206C17.3805 5.06023 16.9739 4.72262 16.9739 4.08812C16.9739 3.34456 17.6978 2.77899 18.69 2.77899C19.3799 2.77899 19.9459 3.06185 20.5491 3.73198L21.7505 2.16013C20.7598 1.29158 19.575 0.849991 18.2823 0.849991C16.1971 0.849991 14.6038 2.3012 14.6038 4.22745C14.6038 5.85622 15.3462 6.68682 17.505 7.46717C18.4076 7.78392 18.8664 7.99522 19.097 8.13962C19.5569 8.44043 19.7879 8.86349 19.7879 9.35837C19.7879 10.3151 19.0265 11.0216 17.9991 11.0216C16.9021 11.0216 16.0186 10.4739 15.4877 9.44802L14.0035 10.8824C15.0627 12.4369 16.3367 13.129 18.0897 13.129C20.4777 13.129 22.1571 11.5349 22.1571 9.25366C22.1571 7.37824 21.3809 6.52852 18.762 5.57206ZM22.8822 6.95114C22.8822 10.422 25.6073 13.1101 29.1108 13.1101C30.1013 13.1101 30.9503 12.9143 31.9951 12.4208V9.71292C31.074 10.6338 30.26 11.0042 29.2158 11.0042C26.8991 11.0042 25.2528 9.32332 25.2528 6.93419C25.2528 4.67106 26.9505 2.88414 29.1108 2.88414C30.2058 2.88414 31.0386 3.27301 31.9951 4.2105V1.50289C30.9868 0.991636 30.154 0.780762 29.1633 0.780762C25.6777 0.780762 22.8822 3.52313 22.8822 6.95114ZM50.6393 8.97124L47.4902 1.04682H44.978L49.9863 13.1453H51.2236L56.3191 1.04667H53.8256L50.6393 8.97124ZM57.3653 12.844H63.8921V10.8468H59.6646V7.66037H63.7303V5.66287H59.6646V3.04432H63.8921V1.04696H57.3651L57.3653 12.844ZM73.0003 4.52841C73.0003 2.31843 71.481 1.04682 68.8259 1.04682H65.4112V12.8439H67.7133V8.10254H68.0145L71.1972 12.8439H74.0278L70.3104 7.87472C72.0466 7.5196 73.0003 6.33387 73.0003 4.52841ZM68.3828 6.47667H67.7133V2.90196H68.4196C69.8556 2.90196 70.6336 3.50518 70.6336 4.65325C70.6336 5.83753 69.8556 6.47667 68.3828 6.47667Z" fill="#0B1015"/>
</g>
<g clip-path="url(#clip1_159_2039)">
<path d="M83.9929 13.1663V12.3419C83.9929 12.0258 83.8005 11.8198 83.4707 11.8198C83.3059 11.8198 83.1272 11.8747 83.0035 12.0534C82.9074 11.9022 82.77 11.8198 82.5639 11.8198C82.4265 11.8198 82.2891 11.861 82.1792 12.0121V11.8473H81.8906V13.1663H82.1792V12.4381C82.1792 12.2045 82.3028 12.0946 82.4952 12.0946C82.6875 12.0946 82.7838 12.2182 82.7838 12.4381V13.1663H83.0723V12.4381C83.0723 12.2045 83.2097 12.0946 83.3883 12.0946C83.5807 12.0946 83.6768 12.2182 83.6768 12.4381V13.1663H83.9929ZM88.266 11.8473H87.7989V11.4488H87.5104V11.8473H87.2493V12.1083H87.5103V12.7129C87.5103 13.0152 87.634 13.1938 87.9638 13.1938C88.0874 13.1938 88.2248 13.1526 88.321 13.0976L88.2385 12.8503C88.1561 12.9052 88.06 12.919 87.9912 12.919C87.8538 12.919 87.7989 12.8366 87.7989 12.6991V12.1083H88.266V11.8473ZM90.7118 11.8197C90.5469 11.8197 90.437 11.9022 90.3683 12.0121V11.8473H90.0797V13.1663H90.3683V12.4243C90.3683 12.2045 90.4644 12.0808 90.6431 12.0808C90.698 12.0808 90.7667 12.0946 90.8217 12.1083L90.9041 11.8336C90.8492 11.8198 90.7667 11.8198 90.7118 11.8198M87.0157 11.9572C86.8783 11.861 86.6859 11.8198 86.4798 11.8198C86.1501 11.8198 85.9303 11.9847 85.9303 12.2458C85.9303 12.4657 86.0951 12.5893 86.3837 12.6305L86.5211 12.6443C86.6722 12.6717 86.7546 12.7129 86.7546 12.7817C86.7546 12.8778 86.6447 12.9465 86.4523 12.9465C86.2599 12.9465 86.1088 12.8778 86.0126 12.8091L85.8752 13.029C86.0264 13.1389 86.2325 13.1938 86.4386 13.1938C86.8233 13.1938 87.0432 13.0153 87.0432 12.7679C87.0432 12.5343 86.8645 12.4106 86.5897 12.3695L86.4523 12.3557C86.3286 12.3419 86.2325 12.3145 86.2325 12.2321C86.2325 12.1359 86.3286 12.0809 86.4798 12.0809C86.6447 12.0809 86.8096 12.1496 86.892 12.1908L87.0157 11.9572ZM94.6827 11.8198C94.5178 11.8198 94.4079 11.9023 94.3391 12.0122V11.8473H94.0506V13.1663H94.3391V12.4244C94.3391 12.2046 94.4353 12.0809 94.6139 12.0809C94.6689 12.0809 94.7376 12.0947 94.7926 12.1084L94.875 11.8336C94.8201 11.8198 94.7376 11.8198 94.6827 11.8198ZM91.0003 12.5068C91.0003 12.9053 91.2751 13.1938 91.7011 13.1938C91.8934 13.1938 92.0308 13.1526 92.1682 13.0427L92.0308 12.8091C91.9209 12.8916 91.811 12.9328 91.6873 12.9328C91.4537 12.9328 91.2889 12.7679 91.2889 12.5068C91.2889 12.2595 91.4537 12.0946 91.6873 12.0809C91.811 12.0809 91.9209 12.1221 92.0308 12.2046L92.1682 11.971C92.0308 11.861 91.8934 11.8198 91.7011 11.8198C91.2751 11.8198 91.0003 12.1084 91.0003 12.5068ZM93.6659 12.5068V11.8473H93.3774V12.0122C93.2812 11.8886 93.1438 11.8198 92.9652 11.8198C92.5942 11.8198 92.3056 12.1084 92.3056 12.5068C92.3056 12.9053 92.5942 13.1938 92.9652 13.1938C93.1575 13.1938 93.2949 13.1252 93.3774 13.0015V13.1663H93.6659V12.5068ZM92.6079 12.5068C92.6079 12.2733 92.759 12.0809 93.0063 12.0809C93.2399 12.0809 93.4049 12.2595 93.4049 12.5068C93.4049 12.7404 93.2399 12.9328 93.0063 12.9328C92.759 12.919 92.6079 12.7404 92.6079 12.5068ZM89.1592 11.8198C88.7744 11.8198 88.4996 12.0946 88.4996 12.5068C88.4996 12.9191 88.7744 13.1938 89.1729 13.1938C89.3652 13.1938 89.5576 13.1389 89.7088 13.0153L89.5713 12.8091C89.4614 12.8916 89.324 12.9465 89.1866 12.9465C89.008 12.9465 88.8294 12.8641 88.7881 12.6305H89.7637V12.5206C89.7775 12.0946 89.5302 11.8198 89.1592 11.8198ZM89.1591 12.0671C89.3377 12.0671 89.4614 12.1771 89.4888 12.3832H88.8018C88.8293 12.2046 88.953 12.0671 89.1591 12.0671ZM96.3177 12.5068V11.3252H96.0291V12.0122C95.9329 11.8886 95.7955 11.8198 95.6169 11.8198C95.2459 11.8198 94.9574 12.1084 94.9574 12.5068C94.9574 12.9053 95.2459 13.1938 95.6169 13.1938C95.8093 13.1938 95.9467 13.1252 96.0291 13.0015V13.1663H96.3177V12.5068ZM95.2597 12.5068C95.2597 12.2733 95.4108 12.0809 95.6582 12.0809C95.8918 12.0809 96.0566 12.2595 96.0566 12.5068C96.0566 12.7404 95.8918 12.9328 95.6582 12.9328C95.4108 12.919 95.2597 12.7404 95.2597 12.5068ZM85.6141 12.5068V11.8473H85.3256V12.0122C85.2294 11.8886 85.092 11.8198 84.9134 11.8198C84.5424 11.8198 84.2538 12.1084 84.2538 12.5068C84.2538 12.9053 84.5424 13.1938 84.9134 13.1938C85.1058 13.1938 85.2431 13.1252 85.3256 13.0015V13.1663H85.6141V12.5068ZM84.5424 12.5068C84.5424 12.2733 84.6935 12.0809 84.9408 12.0809C85.1744 12.0809 85.3393 12.2595 85.3393 12.5068C85.3393 12.7404 85.1744 12.9328 84.9408 12.9328C84.6935 12.919 84.5424 12.7404 84.5424 12.5068Z" fill="black"/>
<path d="M86.9189 1.83057H91.2471V9.60747H86.9189V1.83057Z" fill="#FF5F00"/>
<path d="M87.1935 5.71891C87.1935 4.13881 87.9354 2.73729 89.0758 1.83042C88.2377 1.17091 87.1798 0.772461 86.0256 0.772461C83.2912 0.772461 81.0791 2.98459 81.0791 5.71891C81.0791 8.45322 83.2912 10.6653 86.0255 10.6653C87.1797 10.6653 88.2377 10.2669 89.0758 9.60733C87.9354 8.71423 87.1935 7.299 87.1935 5.71891Z" fill="#EB001B"/>
<path d="M97.0866 5.71891C97.0866 8.45316 94.8744 10.6653 92.1401 10.6653C90.986 10.6653 89.928 10.2669 89.0898 9.60733C90.244 8.70052 90.9722 7.299 90.9722 5.71891C90.9722 4.13881 90.2302 2.73729 89.0898 1.83042C89.9279 1.17091 90.986 0.772461 92.1401 0.772461C94.8744 0.772461 97.0866 2.99836 97.0866 5.71891Z" fill="#F79E1B"/>
</g>
<g clip-path="url(#clip2_159_2039)">
<path d="M114.646 0.931978L110.984 9.66806H108.595L106.793 2.69585C106.684 2.26744 106.589 2.10978 106.256 1.92863C105.713 1.63342 104.815 1.35732 104.026 1.18557L104.08 0.931978H107.926C108.415 0.931978 108.856 1.2579 108.968 1.82222L109.92 6.87793L112.271 0.931978H114.646ZM117.876 0.931978L116.007 9.66806H113.747L115.616 0.931978H117.876ZM124.007 6.81576C124.016 4.51052 120.819 4.38258 120.84 3.3526C120.848 3.03946 121.146 2.70612 121.799 2.62089C122.122 2.57905 123.016 2.54572 124.028 3.01204L124.424 1.15836C123.88 0.961697 123.18 0.772461 122.31 0.772461C120.076 0.772461 118.504 1.95923 118.491 3.65994C118.477 4.91794 119.614 5.61905 120.469 6.03806C121.35 6.46592 121.646 6.74092 121.642 7.12332C121.635 7.7095 120.938 7.96898 120.29 7.9786C119.153 7.99663 118.494 7.67136 117.968 7.42652L117.558 9.3416C118.087 9.58393 119.062 9.79447 120.071 9.80518C122.446 9.80518 124 8.63196 124.007 6.81576ZM129.907 9.66817H131.997L130.171 0.931978H128.243C127.808 0.931978 127.442 1.18437 127.28 1.57234L123.889 9.66806H126.262L126.733 8.36308H129.633L129.907 9.66817ZM127.384 6.57299L128.574 3.29229L129.258 6.57299H127.384ZM120.768 12.0728H119.85V12.9276H120.877V13.1845H119.541V10.8133H120.825V11.0703H119.85V11.8195H120.768L120.768 12.0728ZM121.352 10.6868H121.661V13.1844H121.352V10.6868ZM122.442 12.3894C122.449 12.8081 122.713 12.9804 123.026 12.9804C123.248 12.9804 123.385 12.9418 123.497 12.8926L123.554 13.1143C123.445 13.1635 123.255 13.2232 122.984 13.2232C122.46 13.2232 122.147 12.875 122.147 12.3613C122.147 11.8478 122.449 11.4466 122.945 11.4466C123.504 11.4466 123.649 11.9322 123.649 12.2452C123.649 12.3085 123.645 12.3542 123.638 12.3895L122.442 12.3894ZM123.349 12.1678C123.353 11.9744 123.269 11.6683 122.92 11.6683C122.604 11.6683 122.47 11.9532 122.445 12.1678H123.349ZM125.333 13.1247C125.252 13.1635 125.073 13.2233 124.844 13.2233C124.33 13.2233 123.996 12.875 123.996 12.3543C123.996 11.8301 124.355 11.4467 124.911 11.4467C125.094 11.4467 125.255 11.4922 125.34 11.5381L125.27 11.7738C125.196 11.7351 125.08 11.6927 124.911 11.6927C124.52 11.6927 124.309 11.9848 124.309 12.3368C124.309 12.7307 124.563 12.9735 124.9 12.9735C125.076 12.9735 125.192 12.9313 125.28 12.8926L125.333 13.1247ZM126.201 11.0737V11.4818H126.644V11.7173H126.201V12.6356C126.201 12.8469 126.261 12.9664 126.434 12.9664C126.518 12.9664 126.567 12.9595 126.613 12.9452L126.627 13.1812C126.567 13.2021 126.472 13.2232 126.353 13.2232C126.208 13.2232 126.092 13.1739 126.018 13.0932C125.934 12.998 125.899 12.8469 125.899 12.6463V11.7173H125.635V11.4818H125.899V11.1651L126.201 11.0737ZM127.077 12.0131C127.077 11.8125 127.073 11.6402 127.063 11.4818H127.334L127.348 11.8194H127.358C127.436 11.5909 127.626 11.4466 127.833 11.4466C127.865 11.4466 127.889 11.4502 127.918 11.4536V11.7457C127.886 11.7385 127.854 11.7385 127.812 11.7385C127.594 11.7385 127.439 11.9003 127.397 12.1327C127.39 12.1804 127.386 12.2287 127.386 12.2769V13.1847H127.077V12.0131ZM129.82 12.319C129.82 12.9488 129.381 13.2232 128.973 13.2232C128.515 13.2232 128.156 12.8854 128.156 12.3473C128.156 11.7808 128.533 11.4467 129.001 11.4467C129.49 11.4467 129.82 11.8017 129.82 12.319ZM128.473 12.3368C128.473 12.7097 128.684 12.9913 128.987 12.9913C129.282 12.9913 129.504 12.7131 129.504 12.3297C129.504 12.0413 129.359 11.6787 128.994 11.6787C128.631 11.6787 128.473 12.0167 128.473 12.3368ZM130.295 11.9427C130.295 11.7634 130.291 11.6226 130.281 11.482H130.555L130.573 11.7634H130.58C130.664 11.605 130.861 11.4468 131.143 11.4468C131.378 11.4468 131.744 11.5875 131.744 12.1713V13.1847H131.435V12.2031C131.435 11.9288 131.333 11.6999 131.041 11.6999C130.84 11.6999 130.682 11.8443 130.626 12.0166C130.611 12.0554 130.604 12.108 130.604 12.1609V13.1847H130.295V11.9427Z" fill="#1A1F71"/>
</g>
</g>
<defs>
<filter id="filter0_i_159_2039" x="32.8672" y="0.825195" width="12.9999" height="12.7187" filterUnits="userSpaceOnUse" color-interpolation-filters="sRGB">
<feFlood flood-opacity="0" result="BackgroundImageFix"/>
<feBlend mode="normal" in="SourceGraphic" in2="BackgroundImageFix" result="shape"/>
<feColorMatrix in="SourceAlpha" type="matrix" values="0 0 0 0 0 0 0 0 0 0 0 0 0 0 0 0 0 0 127 0" result="hardAlpha"/>
<feOffset dx="0.434493" dy="0.434493"/>
<feGaussianBlur stdDeviation="0.579324"/>
<feComposite in2="hardAlpha" operator="arithmetic" k2="-1" k3="1"/>
<feColorMatrix type="matrix" values="0 0 0 0 0 0 0 0 0 0 0 0 0 0 0 0 0 0 0.5 0"/>
<feBlend mode="normal" in2="shape" result="effect1_innerShadow_159_2039"/>
</filter>
<linearGradient id="paint0_linear_159_2039" x1="276.82" y1="112.156" x2="1125.89" y2="1008.93" gradientUnits="userSpaceOnUse">
<stop stop-color="#F34F26"/>
<stop offset="1" stop-color="#F69E35"/>
</linearGradient>
<clipPath id="clip0_159_2039">
<rect width="74.1584" height="12.4555" fill="white" transform="translate(0 0.772461)"/>
</clipPath>
<clipPath id="clip1_159_2039">
<rect width="16.026" height="12.4555" fill="white" transform="translate(81.0781 0.772461)"/>
</clipPath>
<clipPath id="clip2_159_2039">
<rect width="27.9763" height="12.4555" fill="white" transform="translate(104.023 0.772461)"/>
</clipPath>
</defs>
</svg>
