<svg width="32" height="32" viewBox="0 0 32 32" fill="none" xmlns="http://www.w3.org/2000/svg">
<path d="M30.5 9.07129H19.5C18.8443 9.08186 18.8416 10.0602 19.5 10.0713L30 10.0713V18.75H10.7007V13.5C10.7007 13.2239 10.4771 13 10.2007 13C9.92432 13 9.70068 13.2239 9.70068 13.5V19.25C9.70068 19.5261 9.92432 19.75 10.2007 19.75H30.5C30.7764 19.75 31 19.5261 31 19.25V9.57129C31 9.29517 30.7764 9.07129 30.5 9.07129Z" fill="black"/>
<path d="M20.4204 17.6315C22.4842 17.6882 23.9579 15.226 23.188 13.2573C21.9615 9.93238 17.4921 10.885 17.4624 14.4107C17.4624 16.1867 18.7895 17.6315 20.4204 17.6315ZM20.4204 12.1899C23.0593 12.3049 22.9805 16.5568 20.4228 16.6298C17.8448 16.5455 17.8246 12.2866 20.4204 12.1899Z" fill="black"/>
<path d="M12.69 17.5989C12.7833 17.7334 12.9366 17.8137 13.1006 17.8137H15.5172C16.1739 17.8029 16.1747 16.8247 15.5171 16.8137H13.6959C13.7227 16.1572 13.504 15.2979 12.6339 14.6336V14.1858C12.9784 13.9518 13.3834 13.5105 12.9908 13.134C12.7886 12.9458 12.4713 12.9578 12.2842 13.1599C12.0913 13.4119 11.6198 13.5366 11.6339 13.9255C11.6339 13.9255 11.6339 14.8936 11.6339 14.8936C11.6339 15.064 11.7208 15.2224 11.8638 15.3145C12.982 16.0315 12.67 17.0315 12.6324 17.1387C12.5748 17.2922 12.5963 17.4641 12.69 17.5989Z" fill="black"/>
<path d="M26.5215 16.8138H24.7003C24.0446 16.8238 24.0419 17.803 24.7003 17.8138C24.7003 17.8138 27.1168 17.8138 27.1168 17.8138C27.4516 17.8213 27.7068 17.4559 27.587 17.1434C27.5474 17.0318 27.2359 16.0315 28.3536 15.3145C28.4971 15.2225 28.5836 15.0638 28.5836 14.8936V13.9256C28.5836 13.7554 28.4971 13.5967 28.3536 13.5047C27.2359 12.7876 27.5474 11.7876 27.585 11.6805C27.7121 11.3671 27.4551 10.9962 27.1167 11.0057C27.1168 11.0057 24.7003 11.0057 24.7003 11.0057C24.0437 11.0165 24.0425 11.9947 24.7003 12.0057C24.7003 12.0057 26.5215 12.0057 26.5215 12.0057C26.4952 12.6619 26.7139 13.5213 27.5836 14.1854V14.6338C26.7139 15.2981 26.4952 16.1575 26.5215 16.8138Z" fill="black"/>
<path d="M2.48539 12.5481H16.6299C17.4458 12.5481 18.1099 11.8811 18.1099 11.0615C18.1086 9.56517 18.1108 6.53867 18.1099 5.03832C18.1099 5.03833 18.1099 3.2417 18.1099 3.2417C18.1099 2.41919 17.4458 1.75 16.6299 1.75H2.48539C1.66654 1.75 1.00004 2.41919 1.00004 3.2417V5.03833C1.00631 6.53964 0.995512 9.56476 1.00005 11.0615C1.00004 11.8811 1.66654 12.5481 2.48539 12.5481ZM16.6299 11.5481H2.48539C2.21781 11.5481 2.00004 11.3298 2.00004 11.0615V8.65381H17.1099V11.0615C17.1099 11.3298 16.8946 11.5481 16.6299 11.5481ZM2.00004 5.53833H17.1099V7.65381H2.00004V5.53833ZM2.48539 2.75H16.6299C16.8946 2.75 17.1099 2.97046 17.1099 3.2417V4.53833H2.00004V3.2417C2.00004 2.97046 2.21781 2.75 2.48539 2.75Z" fill="black"/>
<path d="M15.9897 25.25C16.2661 25.25 16.4897 25.0261 16.4897 24.75V21.75C16.479 21.0934 15.5007 21.0923 15.4897 21.75L15.4897 24.25H5.49756V19.25C5.48725 18.5945 4.50854 18.5914 4.49756 19.25L4.49756 24.75C4.49756 25.0261 4.72119 25.25 4.99756 25.25H9.99365V27.25C9.99365 27.5261 10.2173 27.75 10.4937 27.75C10.77 27.75 10.9937 27.5261 10.9937 27.25V25.25H15.9897Z" fill="black"/>
<path d="M5.99658 26.25H1.5C1.22363 26.25 1 26.4739 1 26.75V29.75C1 30.0261 1.22363 30.25 1.5 30.25H5.99658C6.27295 30.25 6.49658 30.0261 6.49658 29.75V26.75C6.49658 26.4739 6.27295 26.25 5.99658 26.25ZM5.49658 29.25H2V27.25H5.49658V29.25Z" fill="black"/>
<path d="M19.4873 26.25H14.9902C14.7139 26.25 14.4902 26.4739 14.4902 26.75V29.75C14.4902 30.0261 14.7139 30.25 14.9902 30.25H19.4873C19.7637 30.25 19.9873 30.0261 19.9873 29.75V26.75C19.9873 26.4739 19.7637 26.25 19.4873 26.25ZM18.9873 29.25H15.4902V27.25H18.9873V29.25Z" fill="black"/>
</svg>
