<svg width="32" height="32" viewBox="0 0 32 32" fill="none" xmlns="http://www.w3.org/2000/svg">
<g clip-path="url(#clip0_466_1832)">
<path d="M32 19.3832V12.6168H28.312C28.0307 11.5933 27.6229 10.6113 27.096 9.68852L29.706 7.07857L24.9214 2.29402L22.3115 4.90398C21.3887 4.3771 20.4067 3.96935 19.3832 3.68799V0H12.6168V3.68799C11.5933 3.96935 10.6113 4.3771 9.68852 4.90398L7.07857 2.29402L2.29402 7.07857L4.90398 9.68859C4.75084 9.95695 4.607 10.2317 4.47445 10.509L5.32385 10.9149C5.49581 10.5551 5.68848 10.1997 5.89654 9.85873L6.0894 9.54261L3.6253 7.0785L7.0785 3.6253L9.54261 6.0894L9.85873 5.89654C10.8961 5.2636 12.0199 4.79691 13.1989 4.50947L13.5581 4.42185V0.941407H18.4417V4.42192L18.801 4.50953C19.98 4.79697 21.1038 5.26366 22.1411 5.8966L22.4573 6.08946L24.9214 3.62536L28.3746 7.07857L25.9105 9.54267L26.1033 9.85879C26.7363 10.8962 27.203 12.0199 27.4904 13.199L27.578 13.5582H31.0585V18.4418H27.578L27.4904 18.801C27.203 19.98 26.7363 21.1038 26.1033 22.1412L25.9105 22.4573L28.3746 24.9214L24.9214 28.3746L22.4573 25.9105L22.1411 26.1034C21.1038 26.7363 19.98 27.203 18.801 27.4905L18.4417 27.5781V31.0586H13.5581V27.5781L13.1989 27.4905C12.0199 27.203 10.8961 26.7363 9.85873 26.1034L9.54261 25.9105L7.0785 28.3746L3.6253 24.9214L6.0894 22.4573L5.89654 22.1412C5.2636 21.1038 4.79691 19.98 4.50947 18.801L4.42185 18.4418H0.941407V13.5582H4.42192L4.50953 13.199C4.62978 12.7059 4.78354 12.2158 4.96661 11.7426L4.08866 11.4029C3.9354 11.799 3.80115 12.2058 3.68812 12.6167H0V19.3831H3.68799C3.96935 20.4066 4.3771 21.3886 4.90398 22.3114L2.29402 24.9214L7.07857 29.7059L9.68852 27.096C10.6113 27.6228 11.5933 28.0306 12.6168 28.3119V31.9999H19.3832V28.3119C20.4067 28.0306 21.3887 27.6228 22.3115 27.096L24.9214 29.7059L29.706 24.9214L27.096 22.3114C27.6229 21.3886 28.0307 20.4066 28.312 19.3831H32V19.3832Z" fill="black"/>
<path d="M10.1478 21.7971L10.8166 21.1345C9.45422 19.7593 8.70398 17.9359 8.70398 15.9999C8.70398 11.9769 11.9769 8.70398 15.9999 8.70398C20.023 8.70398 23.2959 11.9769 23.2959 15.9999C23.2959 20.023 20.023 23.2959 15.9999 23.2959C14.3414 23.2959 12.7786 22.7537 11.4804 21.7278L10.8967 22.4665C12.3628 23.625 14.1275 24.2373 15.9999 24.2373C20.542 24.2373 24.2373 20.542 24.2373 15.9999C24.2373 11.4578 20.5421 7.76263 16 7.76263C11.4579 7.76263 7.76263 11.4579 7.76263 16C7.76263 18.1856 8.60971 20.2444 10.1478 21.7971Z" fill="black"/>
<path d="M13.8574 15.4423L13.0942 15.9936L15.1029 18.7745L18.884 14.2931L18.1644 13.686L15.1604 17.2464L13.8574 15.4423Z" fill="black"/>
<path d="M21.5242 17.1831C21.6067 16.7966 21.6484 16.3985 21.6484 15.9999C21.6484 12.8854 19.1146 10.3515 16 10.3515C12.8855 10.3515 10.3516 12.8854 10.3516 15.9999C10.3516 19.1145 12.8855 21.6484 16 21.6484C18.2922 21.6484 20.3409 20.2803 21.2193 18.1632L20.3498 17.8024C19.6177 19.5669 17.9103 20.707 16 20.707C13.4045 20.707 11.293 18.5954 11.293 15.9999C11.293 13.4045 13.4045 11.2929 16 11.2929C18.5955 11.2929 20.707 13.4045 20.707 15.9999C20.707 16.3326 20.6722 16.6646 20.6035 16.9869L21.5242 17.1831Z" fill="black"/>
<path d="M12.1458 6.64233C11.8431 6.76748 11.5428 6.90919 11.2531 7.06358L11.696 7.89428C11.9587 7.75426 12.231 7.62573 12.5054 7.51232L12.1458 6.64233Z" fill="black"/>
<path d="M14.0337 6.07166C13.7118 6.13529 13.3895 6.21563 13.0756 6.31052L13.3481 7.21164C13.6326 7.12559 13.9246 7.05279 14.2163 6.99511L14.0337 6.07166Z" fill="black"/>
<path d="M10.9276 8.35357L10.406 7.56995C10.1333 7.75151 9.86617 7.94864 9.61218 8.15588L10.2073 8.88528C10.4378 8.69725 10.6801 8.51832 10.9276 8.35357Z" fill="black"/>
</g>
<defs>
<clipPath id="clip0_466_1832">
<rect width="32" height="32" fill="white"/>
</clipPath>
</defs>
</svg>
