<svg width="101" height="100" viewBox="0 0 101 100" fill="none" xmlns="http://www.w3.org/2000/svg">
<g clip-path="url(#clip0_298_2000)">
<path d="M55.828 99H7.94998C7.27378 99 6.62538 98.7312 6.14758 98.253C5.66958 97.7748 5.40138 97.1262 5.40198 96.45V3.55C5.40138 2.8738 5.66958 2.2252 6.14758 1.747C6.62558 1.2688 7.27378 1 7.94998 1H71.1C72.5084 1 73.65 2.1416 73.65 3.55V81.172L55.828 99Z" fill="#ECF4F7"/>
<path d="M55.828 99V83.91C55.828 82.3978 57.0538 81.172 58.566 81.172H73.656L55.828 99Z" fill="#AAB1BA"/>
<path d="M55.828 100H7.94998C5.99058 99.9978 4.40318 98.4094 4.40198 96.45V92.716C4.40198 92.1638 4.84978 91.716 5.40198 91.716C5.95418 91.716 6.40198 92.1638 6.40198 92.716V96.45C6.40198 97.3052 7.09478 97.9988 7.94998 98H55.414L72.656 80.758V3.558C72.6576 3.1446 72.4942 2.7478 72.2022 2.4552C71.9102 2.1626 71.5134 1.999 71.1 2H7.94998C7.09478 2.0012 6.40198 2.6948 6.40198 3.55V10.064C6.40198 10.6162 5.95418 11.064 5.40198 11.064C4.84978 11.064 4.40198 10.6162 4.40198 10.064V3.55C4.40318 1.5906 5.99058 0.0022 7.94998 0H71.1C73.0596 0.0022 74.6478 1.5904 74.65 3.55V81.172C74.6504 81.4374 74.5454 81.692 74.358 81.88L56.53 99.708C56.3436 99.894 56.0914 99.9988 55.828 100Z" fill="#00923F"/>
<path d="M5.40198 25.022C4.84978 25.022 4.40198 24.5742 4.40198 24.022V14.042C4.40198 13.4898 4.84978 13.042 5.40198 13.042C5.95418 13.042 6.40198 13.4898 6.40198 14.042V24.022C6.40198 24.5742 5.95418 25.022 5.40198 25.022Z" fill="#00923F"/>
<path d="M5.40198 30.466C4.84978 30.466 4.40198 30.0182 4.40198 29.466V27.822C4.40198 27.2698 4.84978 26.822 5.40198 26.822C5.95418 26.822 6.40198 27.2698 6.40198 27.822V29.466C6.40198 30.0182 5.95418 30.466 5.40198 30.466Z" fill="#00923F"/>
<path d="M55.828 100C55.6968 100 55.567 99.9744 55.446 99.924C55.072 99.7694 54.828 99.4046 54.828 99V83.91C54.8302 81.8464 56.5024 80.1742 58.566 80.172H73.656C74.061 80.1712 74.4264 80.415 74.5816 80.789C74.7366 81.1632 74.6508 81.5938 74.364 81.88L56.536 99.708C56.348 99.8954 56.0934 100 55.828 100ZM58.566 82.172C57.6066 82.1732 56.8292 82.9506 56.828 83.91V96.586L71.242 82.172H58.566Z" fill="#00923F"/>
<path d="M32.5859 13.182H13.7319C13.1797 13.182 12.7319 12.7342 12.7319 12.182C12.7319 11.6298 13.1797 11.182 13.7319 11.182H32.5859C33.1381 11.182 33.5859 11.6298 33.5859 12.182C33.5859 12.7342 33.1381 13.182 32.5859 13.182Z" fill="#00923F"/>
<path d="M47.5999 61.706H13.7319C13.1797 61.706 12.7319 61.2582 12.7319 60.706C12.7319 60.1538 13.1797 59.706 13.7319 59.706H47.5999C48.1521 59.706 48.5999 60.1538 48.5999 60.706C48.5999 61.2582 48.1521 61.706 47.5999 61.706Z" fill="#00923F"/>
<path d="M47.5999 66.7H13.7319C13.1797 66.7 12.7319 66.2522 12.7319 65.7C12.7319 65.1478 13.1797 64.7 13.7319 64.7H47.5999C48.1521 64.7 48.5999 65.1478 48.5999 65.7C48.5999 66.2522 48.1521 66.7 47.5999 66.7Z" fill="#00923F"/>
<path d="M47.5999 71.694H13.7319C13.1797 71.694 12.7319 71.2462 12.7319 70.694C12.7319 70.1418 13.1797 69.694 13.7319 69.694H47.5999C48.1521 69.694 48.5999 70.1418 48.5999 70.694C48.5999 71.2462 48.1521 71.694 47.5999 71.694Z" fill="#00923F"/>
<path d="M47.5999 76.686H13.7319C13.1797 76.686 12.7319 76.2382 12.7319 75.686C12.7319 75.1338 13.1797 74.686 13.7319 74.686H47.5999C48.1521 74.686 48.5999 75.1338 48.5999 75.686C48.5999 76.2382 48.1521 76.686 47.5999 76.686Z" fill="#00923F"/>
<path d="M42.8179 13.182H37.1179C36.5657 13.182 36.1179 12.7342 36.1179 12.182C36.1179 11.6298 36.5657 11.182 37.1179 11.182H42.8179C43.3701 11.182 43.8179 11.6298 43.8179 12.182C43.8179 12.7342 43.3701 13.182 42.8179 13.182Z" fill="#00923F"/>
<path d="M48.518 13.182H46.918C46.3658 13.182 45.918 12.7342 45.918 12.182C45.918 11.6298 46.3658 11.182 46.918 11.182H48.518C49.0702 11.182 49.518 11.6298 49.518 12.182C49.518 12.7342 49.0702 13.182 48.518 13.182Z" fill="#00923F"/>
<path d="M13.7319 19.052H65.3259V40.098H13.7319V19.052Z" fill="#FDDF7F"/>
<path d="M13.7319 19.052H32.5859V40.098H13.7319V19.052Z" fill="#83E1E5"/>
<path d="M13.7319 45.798H65.3259V53.252H13.7319V45.798Z" fill="#83E1E5"/>
<path d="M65.326 20.052H13.726C13.1738 20.052 12.726 19.6042 12.726 19.052C12.726 18.4998 13.1738 18.052 13.726 18.052H65.326C65.8781 18.052 66.326 18.4998 66.326 19.052C66.326 19.6042 65.8781 20.052 65.326 20.052Z" fill="#00923F"/>
<path d="M65.326 41.098H13.726C13.1738 41.098 12.726 40.6502 12.726 40.098C12.726 39.5458 13.1738 39.098 13.726 39.098H65.326C65.8781 39.098 66.326 39.5458 66.326 40.098C66.326 40.6502 65.8781 41.098 65.326 41.098Z" fill="#00923F"/>
<path d="M32.5859 41.098H13.7319C13.1797 41.098 12.7319 40.6502 12.7319 40.098C12.7319 39.5458 13.1797 39.098 13.7319 39.098H31.5859V20.052H13.7319C13.1797 20.052 12.7319 19.6042 12.7319 19.052C12.7319 18.4998 13.1797 18.052 13.7319 18.052H32.5859C33.1381 18.052 33.5859 18.4998 33.5859 19.052V40.098C33.5859 40.6502 33.1381 41.098 32.5859 41.098Z" fill="#00923F"/>
<path d="M65.326 54.252H13.726C13.1738 54.252 12.726 53.8042 12.726 53.252C12.726 52.6998 13.1738 52.252 13.726 52.252H65.326C65.8781 52.252 66.326 52.6998 66.326 53.252C66.326 53.8042 65.8781 54.252 65.326 54.252Z" fill="#00923F"/>
<path d="M65.326 46.8H13.726C13.1738 46.8 12.726 46.3522 12.726 45.8C12.726 45.2478 13.1738 44.8 13.726 44.8H65.326C65.8781 44.8 66.326 45.2478 66.326 45.8C66.326 46.3522 65.8781 46.8 65.326 46.8Z" fill="#00923F"/>
<path d="M13.7319 45.798H32.5859V53.252H13.7319" fill="#FDDF7F"/>
<path d="M32.5859 54.252H13.7319C13.1797 54.252 12.7319 53.8042 12.7319 53.252C12.7319 52.6998 13.1797 52.252 13.7319 52.252H31.5859V46.8H13.7319C13.1797 46.8 12.7319 46.3522 12.7319 45.8C12.7319 45.2478 13.1797 44.8 13.7319 44.8H32.5859C33.1381 44.8 33.5859 45.2478 33.5859 45.8V53.254C33.5847 53.8056 33.1375 54.252 32.5859 54.252Z" fill="#00923F"/>
<path d="M28.2243 27.1196L28.2243 27.1198C28.4354 27.1123 28.6337 27.1204 28.8077 27.1542C28.9649 27.1848 29.1558 27.2464 29.3086 27.387C29.4625 27.5163 29.5476 27.6862 29.5949 27.8437C29.6444 28.0088 29.662 28.191 29.662 28.3758C29.662 28.6143 29.5903 28.8505 29.4189 29.0443C29.2546 29.2301 29.0363 29.3341 28.818 29.391L28.8104 29.393L28.8026 29.3948C28.5892 29.4433 28.3531 29.4755 28.0964 29.4931C28.0991 29.5836 28.1024 29.6808 28.1064 29.7847L28.2089 29.7778L28.2166 29.7773L28.2243 29.777C28.4354 29.7695 28.6337 29.7776 28.8077 29.8115C28.9649 29.842 29.1558 29.9036 29.3086 30.0442C29.4625 30.1735 29.5476 30.3435 29.5949 30.501C29.6444 30.6661 29.662 30.8482 29.662 31.033C29.662 31.4148 29.4801 31.7309 29.1583 31.929L29.146 31.9365L29.1333 31.9434C28.862 32.0894 28.5489 32.1462 28.2217 32.1462H28.2024C28.2215 32.9838 28.2311 33.6285 28.2311 34.0786V34.978C28.2311 35.406 27.9998 35.7508 27.6885 36.0118C27.3253 36.3289 26.8216 36.4387 26.2799 36.4387C25.9712 36.4387 25.6769 36.3903 25.4163 36.27L25.4023 36.2636L25.3887 36.2563C25.1771 36.1423 24.9811 35.9994 24.8404 35.8134C24.4426 35.3015 24.0621 34.723 23.6984 34.0794L23.6921 34.0682L23.6922 34.0681C23.384 33.4888 23.0553 32.8243 22.7061 32.0755C22.3876 32.0682 21.9782 32.0645 21.4764 32.0645C21.341 32.0645 21.2193 32.0653 21.1108 32.0669C21.1173 32.214 21.1261 32.3841 21.1375 32.5776L21.1381 32.5869L21.138 32.5869C21.1652 33.2684 21.1792 33.761 21.1792 34.0582C21.1792 34.3568 21.1652 34.62 21.1337 34.842M28.2243 27.1196L20.6384 34.7736M28.2243 27.1196L28.2109 27.1205L28.1136 27.1266C28.132 26.7664 28.1502 26.4742 28.1682 26.249L28.1684 26.249L28.1691 26.2354C28.2238 25.1968 28.2516 24.3826 28.2516 23.7972C28.2516 23.5817 28.2049 23.3662 28.0883 23.172C27.9711 22.9766 27.8019 22.834 27.6073 22.7367C27.2832 22.5747 26.9255 22.5 26.5456 22.5C26.0148 22.5 25.5736 22.7315 25.3002 23.1908C25.068 23.5679 24.9623 24.0017 24.9623 24.4717C24.9623 25.0928 24.9837 26.0139 25.0261 27.2317C24.5941 27.238 24.0595 27.2415 23.4216 27.2421C23.0214 26.3099 22.6577 25.5279 22.3307 24.8986C21.9746 24.1871 21.5696 23.5765 21.1119 23.074C20.7499 22.6689 20.18 22.5409 19.5755 22.5409C19.161 22.5409 18.7784 22.6603 18.4447 22.9013C18.0574 23.181 17.8695 23.5905 17.8695 24.0629C17.8695 24.8975 17.9181 25.8917 18.0139 27.0431L18.0202 27.1402M28.2243 27.1196L18.0202 27.1402M21.1337 34.842C21.1336 34.8428 21.1335 34.8435 21.1333 34.8443L20.6384 34.7736M21.1337 34.842C21.1338 34.8412 21.1339 34.8404 21.134 34.8397L20.6384 34.7736M21.1337 34.842C21.0729 35.2958 20.9369 35.7075 20.6749 36.0136M20.6384 34.7736C20.5839 35.1824 20.468 35.489 20.2909 35.6934M20.6749 36.0136C20.6771 36.011 20.6792 36.0084 20.6813 36.0057L20.2909 35.6934M20.6749 36.0136C20.376 36.3809 19.9174 36.5 19.4528 36.5C19.0441 36.5 18.6545 36.3816 18.37 36.0734C18.0968 35.7775 17.9781 35.3533 17.9333 34.9051L17.9316 34.8886L17.9311 34.872C17.9169 34.446 17.9241 33.9944 17.9521 33.5178C17.9793 33.056 18.0002 32.7413 18.0146 32.5821L18.0154 32.5737L18.0164 32.5653C18.0304 32.4539 18.0447 32.3084 18.0592 32.1276C17.7137 32.101 17.4127 32.0441 17.1739 31.9435L17.1589 31.9372L17.1443 31.9299C16.6649 31.6902 16.5 31.2121 16.5 30.7264C16.5 30.5172 16.5731 30.3174 16.7234 30.1583C16.8627 30.0107 17.0402 29.9277 17.2064 29.8788L17.2136 29.8767L17.2137 29.8767C17.4519 29.8105 17.7691 29.7801 18.1461 29.7743C18.1435 29.6935 18.1403 29.6069 18.1365 29.5143C17.7509 29.4871 17.415 29.4215 17.1539 29.2978L17.1443 29.2932L17.1443 29.2931C16.6649 29.0534 16.5 28.5753 16.5 28.0896C16.5 27.8846 16.5661 27.6777 16.7234 27.5112C16.867 27.3592 17.0497 27.28 17.2195 27.2382C17.4256 27.1797 17.6978 27.1499 18.0202 27.1402M20.6749 36.0136C20.6729 36.0161 20.6708 36.0185 20.6687 36.0209L20.2909 35.6934M20.2909 35.6934L18.0202 27.1402M18.0945 31.6287C17.7844 31.6048 17.5422 31.5561 17.3679 31.4827C17.1226 31.3601 17 31.108 17 30.7264C17 30.5493 17.1158 30.4266 17.3475 30.3585C17.5301 30.3078 17.7994 30.2797 18.1557 30.2743L18.0945 31.6287ZM18.5126 32.6274C18.5282 32.5026 18.5438 32.3422 18.5593 32.1462L18.4308 34.8553C18.4172 34.4465 18.424 34.0105 18.4513 33.5472C18.4785 33.0839 18.499 32.7773 18.5126 32.6274ZM21.077 29.8485V29.4291C21.1492 29.4281 21.2277 29.4277 21.3129 29.4277H21.5579L21.7478 29.8626L21.077 29.8485ZM24.3462 29.4559L25.1063 29.4637L25.1238 29.8602C24.8981 29.8618 24.7004 29.8645 24.5308 29.8684C24.4712 29.7372 24.4097 29.5997 24.3462 29.4559Z" fill="white" stroke="#00923F"/>
<path d="M5.40195 33.6C7.12735 33.6 8.52595 34.9986 8.52595 36.724V80.988H2.27795V36.714C2.28355 34.9926 3.68055 33.6 5.40195 33.6Z" fill="#83E1E5"/>
<path d="M8.52595 81.988H2.27795C1.72575 81.988 1.27795 81.5402 1.27795 80.988V36.714C1.27795 34.4364 3.12435 32.59 5.40195 32.59C7.67955 32.59 9.52595 34.4364 9.52595 36.714V80.988C9.52595 81.5402 9.07815 81.988 8.52595 81.988ZM3.27795 79.988H7.52595V36.714C7.52595 35.541 6.57495 34.59 5.40195 34.59C4.22895 34.59 3.27795 35.541 3.27795 36.714V79.988Z" fill="#00923F"/>
<path d="M2.27795 80.988L4.42595 87.516C4.56515 87.937 4.95855 88.2212 5.40195 88.2212C5.84535 88.2212 6.23875 87.937 6.37795 87.516L8.52595 80.988H2.27795Z" fill="#AAB1BA"/>
<path d="M5.402 89.222C4.5218 89.23 3.74 88.6616 3.476 87.822L1.328 81.3C1.228 80.9954 1.28 80.6612 1.4682 80.4016C1.6562 80.1418 1.9574 79.9882 2.278 79.988H8.526C8.8466 79.988 9.1478 80.1418 9.3358 80.4016C9.5238 80.6614 9.576 80.9954 9.476 81.3L7.328 87.828C7.0618 88.6652 6.2804 89.2308 5.402 89.222ZM3.66 81.988L5.376 87.2C5.3752 87.2066 5.3752 87.2134 5.376 87.22C5.3886 87.2216 5.4014 87.2216 5.414 87.22V87.204L7.13 81.99L3.66 81.988Z" fill="#00923F"/>
<path d="M67.6059 12.726H96.4419C97.7011 12.726 98.7219 13.7468 98.7219 15.006V55.546C98.7219 56.8052 97.7011 57.826 96.4419 57.826H67.6059C66.3467 57.826 65.3259 56.8052 65.3259 55.546V15.006C65.3259 13.7468 66.3467 12.726 67.6059 12.726Z" fill="#ECF4F7"/>
<path d="M96.4419 58.826H67.6039C65.7937 58.8238 64.3271 57.3562 64.3259 55.546V15C64.3281 13.1906 65.7945 11.7242 67.6039 11.722H96.4419C98.2521 11.7232 99.7197 13.1898 99.7219 15V55.546C99.7197 57.3566 98.2525 58.8238 96.4419 58.826ZM67.6039 13.726C66.9001 13.727 66.3291 14.2962 66.3259 15V55.546C66.3259 56.2522 66.8977 56.8248 67.6039 56.826H96.4419C97.1483 56.8248 97.7209 56.2524 97.7219 55.546V15C97.7209 14.2938 97.1481 13.722 96.4419 13.722L67.6039 13.726Z" fill="#00923F"/>
<path d="M72.2159 17.648H91.8319C92.2483 17.648 92.5859 17.9856 92.5859 18.402V22.224C92.5859 22.6404 92.2483 22.978 91.8319 22.978H72.2159C71.7995 22.978 71.4619 22.6404 71.4619 22.224V18.402C71.4619 17.9856 71.7995 17.648 72.2159 17.648Z" fill="#83E1E5"/>
<path d="M72.9139 26.722H91.1339C91.9359 26.722 92.5859 27.372 92.5859 28.174V50.258C92.5859 51.06 91.9359 51.71 91.1339 51.71H72.9139C72.1119 51.71 71.4619 51.06 71.4619 50.258V28.174C71.4619 27.372 72.1119 26.722 72.9139 26.722Z" fill="#AAB1BA"/>
<path d="M76.6159 26.722H72.9139C72.1119 26.722 71.4619 27.372 71.4619 28.174V32.8H76.6159V26.722Z" fill="#83E1E5"/>
<path d="M87.376 32.802V51.802H92.586V32.802H87.376Z" fill="#FDDF7F"/>
<path d="M91.1339 52.8H72.9139C71.5601 52.7988 70.4631 51.7018 70.4619 50.348V28.174C70.4631 26.8202 71.5601 25.7232 72.9139 25.722H91.1339C92.4877 25.7232 93.5847 26.8202 93.5859 28.174V50.35C93.5837 51.703 92.4869 52.799 91.1339 52.8ZM72.9139 27.72C72.6643 27.72 72.4619 27.9224 72.4619 28.172V50.35C72.4619 50.5996 72.6643 50.802 72.9139 50.802H91.1339C91.3835 50.802 91.5859 50.5996 91.5859 50.35V28.174C91.5859 27.9244 91.3835 27.722 91.1339 27.722L72.9139 27.72Z" fill="#00923F"/>
<path d="M76.5759 52.8C76.0237 52.8 75.5759 52.3522 75.5759 51.8V26.722C75.5759 26.1698 76.0237 25.722 76.5759 25.722C77.1281 25.722 77.5759 26.1698 77.5759 26.722V51.8C77.5759 52.3522 77.1281 52.8 76.5759 52.8Z" fill="#00923F"/>
<path d="M82.0239 52.8C81.4717 52.8 81.0239 52.3522 81.0239 51.8V26.722C81.0239 26.1698 81.4717 25.722 82.0239 25.722C82.5761 25.722 83.0239 26.1698 83.0239 26.722V51.8C83.0239 52.3522 82.5761 52.8 82.0239 52.8Z" fill="#00923F"/>
<path d="M87.4739 52.8C86.9217 52.8 86.4739 52.3522 86.4739 51.8V26.722C86.4739 26.1698 86.9217 25.722 87.4739 25.722C88.0261 25.722 88.4739 26.1698 88.4739 26.722V51.8C88.4739 52.3522 88.0261 52.8 87.4739 52.8Z" fill="#00923F"/>
<path d="M92.5859 33.854H71.4619C70.9097 33.854 70.4619 33.4062 70.4619 32.854C70.4619 32.3018 70.9097 31.854 71.4619 31.854H92.5859C93.1381 31.854 93.5859 32.3018 93.5859 32.854C93.5859 33.4062 93.1381 33.854 92.5859 33.854Z" fill="#00923F"/>
<path d="M92.5859 40.424H71.4619C70.9097 40.424 70.4619 39.9762 70.4619 39.424C70.4619 38.8718 70.9097 38.424 71.4619 38.424H92.5859C93.1381 38.424 93.5859 38.8718 93.5859 39.424C93.5859 39.9762 93.1381 40.424 92.5859 40.424Z" fill="#00923F"/>
<path d="M87.4739 47H71.4619C70.9097 47 70.4619 46.5522 70.4619 46C70.4619 45.4478 70.9097 45 71.4619 45H87.4739C88.0261 45 88.4739 45.4478 88.4739 46C88.4739 46.5522 88.0261 47 87.4739 47Z" fill="#00923F"/>
</g>
<defs>
<clipPath id="clip0_298_2000">
<rect width="100" height="100" fill="white" transform="translate(0.5)"/>
</clipPath>
</defs>
</svg>
