<svg width="101" height="100" viewBox="0 0 101 100" fill="none" xmlns="http://www.w3.org/2000/svg">
<g clip-path="url(#clip0_298_2053)">
<path d="M11.4291 8.75549H42.055V23.7373H11.4291V8.75549Z" fill="#FFD452"/>
<path d="M49.4647 29.9408H66.4256V31.5071H49.4647V29.9408Z" fill="#00923F"/>
<path d="M11.4291 38.369H33.4483V39.9361H11.4291V38.369Z" fill="#00923F"/>
<path d="M11.4291 43.6241H33.4483V45.1912H11.4291V43.6241Z" fill="#00923F"/>
<path d="M10.6455 52.7077V80.0323H67.1717V52.7077H10.6455ZM65.6054 78.466H12.2126V54.2747H65.6054V78.466Z" fill="#00923F"/>
<path d="M14.0406 56.1028H63.7774V76.638H14.0406V56.1028Z" fill="#DFDFDF"/>
<path d="M47.1567 87.2482H68.4427V88.8153H47.1567V87.2482Z" fill="#00923F"/>
<path d="M25.4413 53.4912H27.0076V79.2496H25.4413V53.4912Z" fill="#00923F"/>
<path d="M55.4485 53.4912H57.0156V79.2496H55.4485V53.4912Z" fill="#00923F"/>
<path d="M49.4976 53.4912H51.0646V79.2496H49.4976V53.4912Z" fill="#00923F"/>
<path d="M16.5896 11.6653H18.1559V20.8275H16.5896V11.6653Z" fill="#00923F"/>
<path d="M26.0509 11.9728V17.6407L22.4551 11.573L20.9979 11.9728V20.4994H22.5642V14.8308L26.1607 20.8984L27.618 20.4994V11.9728H26.0509Z" fill="#00923F"/>
<path d="M35.3747 11.7073L33.0462 18.1839L30.7177 11.7073L29.2429 12.2375L32.3092 20.7642H33.7832L36.8487 12.2375L35.3747 11.7073Z" fill="#00923F"/>
<path d="M77.7919 26.2238L78.1939 25.9995V4.25644C78.1939 2.77328 79.4001 1.56708 80.8833 1.56708V0H10.8096C5.66357 0 1.47656 4.18701 1.47656 9.33304V95.7436C1.47656 98.0904 3.38391 100 5.72842 100H80.8833V98.4329C79.4001 98.4329 78.1939 97.2267 78.1939 95.7436V50.0282L77.7919 49.8047C73.5171 47.419 70.8613 42.9024 70.8613 38.0165C70.8613 33.1276 73.5171 28.6087 77.7919 26.2238ZM69.2943 38.0165C69.2943 43.3151 72.0927 48.2246 76.6269 50.9399V95.7436C76.6269 96.7628 76.987 97.6997 77.5874 98.4329H5.72842C4.24756 98.4329 3.04364 97.2267 3.04364 95.7436V9.33304C3.04364 5.05066 6.52722 1.56708 10.8096 1.56708H77.5866C76.987 2.30026 76.6269 3.23715 76.6269 4.25644V25.0877C72.0927 27.8038 69.2943 32.7148 69.2943 38.0165Z" fill="#00923F"/>
<path d="M76.6245 82.3479V95.7458C76.6245 98.0911 78.5357 100 80.884 100C83.23 100 85.1382 98.0911 85.1382 95.7458V82.3479H76.6245ZM83.5718 95.7458C83.5718 97.2275 82.3664 98.4329 80.8848 98.4329C79.4001 98.4329 78.1916 97.2275 78.1916 95.7458V83.9142H83.5718V95.7458Z" fill="#00923F"/>
<path d="M80.8794 0C78.5334 0 76.6245 1.90887 76.6245 4.25415V17.6521H85.1389V4.25415C85.1389 1.90887 83.2278 0 80.8794 0ZM83.5718 16.0851H78.1916V4.25415C78.1916 2.77252 79.397 1.56708 80.8794 1.56708C82.3641 1.56708 83.5718 2.77252 83.5718 4.25415V16.0851Z" fill="#00923F"/>
<path d="M11.4291 58.2718H66.3889V59.8381H11.4291V58.2718Z" fill="#00923F"/>
<path d="M84.3555 27.0523C78.31 27.0523 73.3928 31.9702 73.3928 38.015C73.3928 44.0598 78.31 48.9777 84.3555 48.9777C90.4003 48.9777 95.3182 44.0598 95.3182 38.015C95.3182 31.9702 90.4003 27.0523 84.3555 27.0523Z" fill="#FFD452"/>
<path d="M84.3555 22.9538C76.0509 22.9538 69.295 29.7104 69.295 38.015C69.295 46.3196 76.0509 53.0754 84.3555 53.0754C92.6601 53.0754 99.4159 46.3196 99.4159 38.015C99.4159 29.7104 92.6593 22.9538 84.3555 22.9538ZM84.3555 51.5083C76.9145 51.5083 70.8621 45.4552 70.8621 38.015C70.8621 30.5748 76.9145 24.5209 84.3555 24.5209C91.7957 24.5209 97.8496 30.5748 97.8496 38.015C97.8496 45.4552 91.7957 51.5083 84.3555 51.5083Z" fill="#00923F"/>
<path d="M74.5845 40.873L73.0807 41.3139C73.2379 41.8495 73.4348 42.3782 73.6667 42.8856L75.0919 42.234C74.8912 41.7946 74.7203 41.3376 74.5845 40.873ZM75.8014 32.5012L74.4868 31.649C74.184 32.1175 73.9116 32.6118 73.6781 33.1192L75.101 33.7738C75.304 33.3344 75.5389 32.9063 75.8014 32.5012ZM74.5906 35.1341L73.0884 34.6909C72.9305 35.2249 72.8099 35.7765 72.7298 36.3297L74.2809 36.554C74.3495 36.0748 74.454 35.5972 74.5906 35.1341ZM77.7072 30.3116L76.6818 29.1275C76.2592 29.4937 75.8594 29.8912 75.4947 30.3108L76.6772 31.3385C76.9931 30.9753 77.3402 30.6297 77.7072 30.3116ZM74.1763 38.0028L72.6093 38.015C72.6093 38.5696 72.6482 39.1281 72.726 39.6744L74.2778 39.4539C74.2099 38.9801 74.1763 38.4964 74.1763 38.0028ZM92.0711 29.1634C91.6515 28.7971 91.2013 28.4569 90.7314 28.1532L89.8799 29.4685C90.2866 29.7318 90.6764 30.0262 91.0396 30.3436L92.0711 29.1634ZM94.5354 38.0508L96.1017 38.0157C96.1024 37.4702 96.0643 36.9202 95.9888 36.3815L94.437 36.599C94.5026 37.0659 94.5354 37.542 94.5354 38.0508ZM89.2627 27.3422C88.7546 27.108 88.2266 26.9089 87.6918 26.7502L87.247 28.2532C87.7094 28.3897 88.1664 28.5622 88.6058 28.7651L89.2627 27.3422ZM94.1333 35.1784L95.6378 34.7404C95.4814 34.2049 95.2861 33.6746 95.0549 33.1673L93.629 33.8165C93.8281 34.2552 93.9983 34.7137 94.1333 35.1784ZM74.4716 44.3565C74.7722 44.8242 75.1102 45.2751 75.4764 45.6978L76.6605 44.6716C76.3431 44.3054 76.0501 43.914 75.7892 43.5089L74.4716 44.3565ZM92.934 32.5409L94.2531 31.6956C93.9517 31.2256 93.6145 30.7739 93.2521 30.352L92.0642 31.3751C92.3801 31.7413 92.6723 32.1335 92.934 32.5409ZM88.544 47.2923L89.191 48.7198C89.696 48.4909 90.192 48.2216 90.6642 47.9202L89.8204 46.6003C89.4115 46.8613 88.9819 47.094 88.544 47.2923ZM90.9869 45.7321L92.0085 46.9193C92.4319 46.5553 92.8317 46.1586 93.1979 45.7397L92.0192 44.7083C91.7011 45.0722 91.3539 45.4163 90.9869 45.7321ZM85.76 48.098L85.976 49.649C86.5283 49.5735 87.0799 49.456 87.617 49.2996L87.1814 47.7951C86.7168 47.9294 86.2384 48.0316 85.76 48.098ZM94.1135 40.9164L95.6149 41.3643C95.7744 40.831 95.8965 40.2802 95.9773 39.7263L94.427 39.4981C94.3568 39.978 94.2516 40.4556 94.1135 40.9164ZM92.8966 43.5471L94.2104 44.4016C94.5148 43.9323 94.7879 43.438 95.0214 42.9329L93.6 42.2752C93.3971 42.7124 93.1606 43.1412 92.8966 43.5471ZM82.6831 49.6422C83.2332 49.7215 83.7955 49.7612 84.3555 49.7612V48.1941C83.8695 48.1941 83.382 48.159 82.9059 48.0911L82.6831 49.6422ZM86.0538 26.3908C85.5052 26.3107 84.9422 26.2695 84.3814 26.268L84.3784 27.8351C84.8644 27.8358 85.3526 27.8717 85.8272 27.9411L86.0538 26.3908ZM79.4727 48.6984C79.9831 48.9311 80.5118 49.1287 81.0443 49.2859L81.4861 47.7829C81.0252 47.6471 80.5667 47.4754 80.1242 47.2733L79.4727 48.6984ZM79.4978 27.3209C78.992 27.5505 78.4969 27.8206 78.0254 28.1235L78.8722 29.4418C79.2804 29.1794 79.7092 28.9452 80.1463 28.7468L79.4978 27.3209ZM76.6605 46.8826C77.0824 47.2488 77.5333 47.5876 78.0009 47.8905L78.8516 46.5744C78.445 46.312 78.0544 46.0182 77.6889 45.7008L76.6605 46.8826ZM82.709 26.3832C82.1552 26.4618 81.6035 26.5808 81.0687 26.7365L81.5074 28.2402C81.9705 28.1059 82.4489 28.0022 82.928 27.935L82.709 26.3832Z" fill="#00923F"/>
<path d="M90.4735 33.9653L81.895 41.3681L78.3161 37.2612L77.1343 38.2904L81.7386 43.5722L91.4966 35.1517L90.4735 33.9653Z" fill="#00923F"/>
</g>
<defs>
<clipPath id="clip0_298_2053">
<rect width="100" height="100" fill="white" transform="translate(0.5)"/>
</clipPath>
</defs>
</svg>
