<svg width="101" height="100" viewBox="0 0 101 100" fill="none" xmlns="http://www.w3.org/2000/svg">
<g clip-path="url(#clip0_298_1975)">
<path d="M84.966 2.91262C84.966 4.52039 83.6611 5.82524 82.0533 5.82524C80.4456 5.82524 79.1407 4.52039 79.1407 2.91262H73.3155C73.3155 4.52039 72.0106 5.82524 70.4029 5.82524C68.7951 5.82524 67.4902 4.52039 67.4902 2.91262H61.665C61.665 4.52039 60.3601 5.82524 58.7524 5.82524C57.1446 5.82524 55.8397 4.52039 55.8397 2.91262H50.0145C50.0145 4.52039 48.7096 5.82524 47.1019 5.82524C45.4941 5.82524 44.1893 4.52039 44.1893 2.91262H38.364V18.4466H43.2184C44.3776 18.4466 45.4184 18.9553 46.131 19.7612C46.8436 18.9534 47.8844 18.4466 49.0436 18.4466H54.8689C56.0281 18.4466 57.0689 18.9553 57.7815 19.7612C58.4941 18.9534 59.5349 18.4466 60.6941 18.4466H66.5194C68.665 18.4466 70.4029 20.1845 70.4029 22.3301V28.1553H79.1407C81.8223 28.1553 83.9951 30.3282 83.9951 33.0097V58.2524C83.9951 60.934 81.8223 63.1068 79.1407 63.1068H70.4029V74.7573C72.0106 74.7573 73.3155 76.0621 73.3155 77.6699H79.1407C79.1407 76.0621 80.4456 74.7573 82.0533 74.7573C83.6611 74.7573 84.966 76.0621 84.966 77.6699H90.7912V2.91262H84.966Z" fill="#00923F"/>
<path d="M66.5194 98.0583H60.6942C60.1582 98.0583 59.7233 97.6233 59.7233 97.0874C59.7233 96.0175 58.8514 95.1456 57.7815 95.1456C56.7116 95.1456 55.8398 96.0175 55.8398 97.0874C55.8398 97.6233 55.4048 98.0583 54.8689 98.0583H49.0437C48.5077 98.0583 48.0728 97.6233 48.0728 97.0874C48.0728 96.0175 47.201 95.1456 46.131 95.1456C45.0611 95.1456 44.1893 96.0175 44.1893 97.0874C44.1893 97.6233 43.7543 98.0583 43.2184 98.0583H37.3932C36.8573 98.0583 36.4223 97.6233 36.4223 97.0874C36.4223 96.0175 35.5505 95.1456 34.4806 95.1456C33.4107 95.1456 32.5388 96.0175 32.5388 97.0874C32.5388 97.6233 32.1039 98.0583 31.5679 98.0583H25.7427C25.2068 98.0583 24.7718 97.6233 24.7718 97.0874C24.7718 96.0175 23.9 95.1456 22.8301 95.1456C21.7602 95.1456 20.8883 96.0175 20.8883 97.0874C20.8883 97.6233 20.4534 98.0583 19.9175 98.0583H14.0922C13.5563 98.0583 13.1213 97.6233 13.1213 97.0874V22.3301C13.1213 21.7942 13.5563 21.3592 14.0922 21.3592H19.9175C20.4534 21.3592 20.8883 21.7942 20.8883 22.3301C20.8883 23.4 21.7602 24.2718 22.8301 24.2718C23.9 24.2718 24.7718 23.4 24.7718 22.3301C24.7718 21.7942 25.2068 21.3592 25.7427 21.3592H31.5679C32.1039 21.3592 32.5388 21.7942 32.5388 22.3301C32.5388 23.4 33.4107 24.2718 34.4806 24.2718C35.5505 24.2718 36.4223 23.4 36.4223 22.3301C36.4223 21.7942 36.8573 21.3592 37.3932 21.3592H43.2184C43.7543 21.3592 44.1893 21.7942 44.1893 22.3301C44.1893 23.4 45.0611 24.2718 46.131 24.2718C47.201 24.2718 48.0728 23.4 48.0728 22.3301C48.0728 21.7942 48.5077 21.3592 49.0437 21.3592H54.8689C55.4048 21.3592 55.8398 21.7942 55.8398 22.3301C55.8398 23.4 56.7116 24.2718 57.7815 24.2718C58.8514 24.2718 59.7233 23.4 59.7233 22.3301C59.7233 21.7942 60.1582 21.3592 60.6942 21.3592H66.5194C67.0553 21.3592 67.4903 21.7942 67.4903 22.3301V97.0874C67.4903 97.6233 67.0553 98.0583 66.5194 98.0583ZM61.5427 96.1165H65.5485V23.301H61.5427C61.1116 24.9748 59.5893 26.2136 57.7815 26.2136C55.9738 26.2136 54.4534 24.9748 54.0204 23.301H49.8903C49.4592 24.9748 47.9369 26.2136 46.1291 26.2136C44.3213 26.2136 42.8009 24.9748 42.3679 23.301H38.2378C37.8068 24.9748 36.2844 26.2136 34.4767 26.2136C32.6689 26.2136 31.1485 24.9748 30.7155 23.301H26.5854C26.1543 24.9748 24.632 26.2136 22.8243 26.2136C21.0165 26.2136 19.4961 24.9748 19.0631 23.301H15.0631V96.1165H19.0689C19.5 94.4427 21.0223 93.2039 22.8301 93.2039C24.6378 93.2039 26.1582 94.4427 26.5912 96.1165H30.7213C31.1524 94.4427 32.6747 93.2039 34.4825 93.2039C36.2903 93.2039 37.8107 94.4427 38.2437 96.1165H42.3738C42.8048 94.4427 44.3272 93.2039 46.1349 93.2039C47.9427 93.2039 49.4631 94.4427 49.8961 96.1165H54.0262C54.4573 94.4427 55.9796 93.2039 57.7874 93.2039C59.5951 93.2039 61.1097 94.4427 61.5427 96.1165Z" fill="#00923F"/>
<path d="M90.7912 78.6408H84.966C84.4301 78.6408 83.9951 78.2058 83.9951 77.6699C83.9951 76.6 83.1233 75.7282 82.0534 75.7282C80.9835 75.7282 80.1116 76.6 80.1116 77.6699C80.1116 78.2058 79.6767 78.6408 79.1408 78.6408H73.3155C72.7796 78.6408 72.3446 78.2058 72.3446 77.6699C72.3446 76.6 71.4728 75.7282 70.4029 75.7282C69.867 75.7282 69.432 75.2932 69.432 74.7573C69.432 74.2214 69.867 73.7864 70.4029 73.7864C72.2087 73.7864 73.7311 75.0252 74.1641 76.699H78.2942C78.7252 75.0252 80.2476 73.7864 82.0553 73.7864C83.8631 73.7864 85.3835 75.0252 85.8165 76.699H89.8223V3.8835H85.8165C85.3854 5.55728 83.8631 6.79612 82.0553 6.79612C80.2476 6.79612 78.7272 5.55728 78.2942 3.8835H74.1641C73.733 5.55728 72.2107 6.79612 70.4029 6.79612C68.5951 6.79612 67.0747 5.55728 66.6417 3.8835H62.5116C62.0806 5.55728 60.5582 6.79612 58.7505 6.79612C56.9427 6.79612 55.4223 5.55728 54.9893 3.8835H50.8592C50.4281 5.55728 48.9058 6.79612 47.098 6.79612C45.2903 6.79612 43.7699 5.55728 43.3369 3.8835H39.3349V18.4466C39.3349 18.9825 38.9 19.4175 38.3641 19.4175C37.8281 19.4175 37.3932 18.9825 37.3932 18.4466V2.91262C37.3932 2.3767 37.8281 1.94175 38.3641 1.94175H44.1893C44.7252 1.94175 45.1602 2.3767 45.1602 2.91262C45.1602 3.98253 46.032 4.85437 47.1019 4.85437C48.1718 4.85437 49.0437 3.98253 49.0437 2.91262C49.0437 2.3767 49.4786 1.94175 50.0145 1.94175H55.8398C56.3757 1.94175 56.8107 2.3767 56.8107 2.91262C56.8107 3.98253 57.6825 4.85437 58.7524 4.85437C59.8223 4.85437 60.6942 3.98253 60.6942 2.91262C60.6942 2.3767 61.1291 1.94175 61.665 1.94175H67.4903C68.0262 1.94175 68.4611 2.3767 68.4611 2.91262C68.4611 3.98253 69.333 4.85437 70.4029 4.85437C71.4728 4.85437 72.3446 3.98253 72.3446 2.91262C72.3446 2.3767 72.7796 1.94175 73.3155 1.94175H79.1408C79.6767 1.94175 80.1116 2.3767 80.1116 2.91262C80.1116 3.98253 80.9835 4.85437 82.0534 4.85437C83.1233 4.85437 83.9951 3.98253 83.9951 2.91262C83.9951 2.3767 84.4301 1.94175 84.966 1.94175H90.7912C91.3272 1.94175 91.7621 2.3767 91.7621 2.91262V77.6699C91.7621 78.2058 91.3272 78.6408 90.7912 78.6408Z" fill="#00923F"/>
<path d="M78.17 59.2233H54.869C53.7971 59.2233 52.9272 58.3534 52.9272 57.2816V33.9806C52.9272 32.9087 53.7971 32.0388 54.869 32.0388H78.17C79.2418 32.0388 80.1117 32.9087 80.1117 33.9806V57.2816C80.1117 58.3534 79.2418 59.2233 78.17 59.2233Z" fill="#FFD740"/>
<path d="M78.1699 60.1942H54.8689C53.2631 60.1942 51.9563 58.8874 51.9563 57.2816V33.9806C51.9563 32.3748 53.2631 31.068 54.8689 31.068H78.1699C79.7757 31.068 81.0825 32.3748 81.0825 33.9806V57.2816C81.0825 58.8874 79.7757 60.1942 78.1699 60.1942ZM54.8689 33.0097C54.333 33.0097 53.898 33.4447 53.898 33.9806V57.2816C53.898 57.8175 54.333 58.2524 54.8689 58.2524H78.1699C78.7058 58.2524 79.1408 57.8175 79.1408 57.2816V33.9806C79.1408 33.4447 78.7058 33.0097 78.1699 33.0097H54.8689Z" fill="#00923F"/>
<path d="M72.5456 44.672C72.9713 44.6568 73.2451 44.7101 73.3667 44.8317C73.5036 44.9382 73.572 45.1663 73.572 45.516C73.572 45.8202 73.3971 46.0178 73.0474 46.1091C72.7128 46.1851 72.3022 46.2231 71.8156 46.2231C71.8156 46.5577 71.8308 47.0443 71.8613 47.683L72.5456 47.6374C72.9713 47.6222 73.2451 47.6754 73.3667 47.797C73.5036 47.9035 73.572 48.1316 73.572 48.4813C73.572 48.7094 73.4732 48.8843 73.2755 49.006C73.0778 49.1124 72.8269 49.1656 72.5227 49.1656H71.9297C71.9601 50.3822 71.9753 51.287 71.9753 51.88V52.8837C71.9753 53.1422 71.8384 53.3855 71.5647 53.6136C71.3062 53.8417 70.9032 53.9558 70.3558 53.9558C70.0669 53.9558 69.8235 53.9101 69.6259 53.8189C69.4282 53.7125 69.2837 53.5984 69.1925 53.4767C68.7667 52.9293 68.3561 52.3058 67.9607 51.6063C67.5806 50.8916 67.17 50.0552 66.729 49.0972C66.3336 49.082 65.7557 49.0744 64.9954 49.0744C64.5544 49.0744 64.2275 49.082 64.0146 49.0972C64.0146 49.3405 64.0298 49.7207 64.0602 50.2377C64.0906 50.998 64.1058 51.5379 64.1058 51.8572C64.1058 52.1766 64.0906 52.4427 64.0602 52.6556C63.9994 53.1118 63.8701 53.4539 63.6724 53.682C63.4899 53.9101 63.1782 54.0242 62.7372 54.0242C62.3875 54.0242 62.1213 53.9253 61.9389 53.7277C61.7564 53.53 61.6423 53.203 61.5967 52.7468C61.5815 52.2906 61.5891 51.804 61.6195 51.287C61.6499 50.7699 61.6727 50.4278 61.6879 50.2605C61.7184 50.0172 61.7488 49.6523 61.7792 49.1656C61.1557 49.1656 60.6995 49.1048 60.4106 48.9832C60.1369 48.8463 60 48.565 60 48.1392C60 47.9415 60.1293 47.8046 60.3878 47.7286C60.6615 47.6526 61.1101 47.6222 61.7336 47.6374L61.8476 47.6602V47.6146C61.8476 47.3104 61.8324 46.8542 61.802 46.2459C61.1633 46.2459 60.6995 46.1775 60.4106 46.0407C60.1369 45.9038 60 45.6225 60 45.1967C60 44.9838 60.1293 44.8469 60.3878 44.7861C60.6463 44.7101 61.0949 44.6797 61.7336 44.6949L61.6879 43.9877C61.5815 42.7104 61.5283 41.6155 61.5283 40.7031C61.5283 40.3381 61.6651 40.0568 61.9389 39.8591C62.2126 39.6614 62.5243 39.5626 62.8741 39.5626C63.4975 39.5626 63.9309 39.6994 64.1742 39.9732C64.6457 40.4902 65.0714 41.1289 65.4516 41.8892C65.847 42.6496 66.2956 43.6228 66.7974 44.8089H66.9571C68.0824 44.8089 68.9416 44.8013 69.5346 44.7861C69.4738 43.1438 69.4434 41.9348 69.4434 41.1593C69.4434 40.7183 69.5422 40.3381 69.7399 40.0188C69.9376 39.6842 70.2417 39.517 70.6523 39.517C71.0021 39.517 71.3138 39.5854 71.5875 39.7223C71.8612 39.8591 71.9981 40.0872 71.9981 40.4066C71.9981 41.0452 71.9677 41.9424 71.9069 43.0982C71.8765 43.4783 71.846 44.0182 71.8156 44.7177L72.5456 44.672ZM63.969 43.0069C63.9994 43.6456 64.0146 44.2311 64.0146 44.7633C64.1666 44.7785 64.3111 44.7861 64.448 44.7861C64.5848 44.7709 64.7217 44.7709 64.8586 44.7861C64.6304 44.2843 64.3339 43.6912 63.969 43.0069ZM64.8129 46.1319C64.448 46.1319 64.1742 46.1395 63.9918 46.1547V47.7058L66.1587 47.7514L65.4516 46.1319H64.8129ZM68.052 47.7514C68.3865 47.7362 68.9187 47.7286 69.6487 47.7286L69.5802 46.1775L67.3449 46.1547C67.6034 46.763 67.8391 47.2952 68.052 47.7514ZM69.5346 50.7167C69.6259 50.4278 69.6715 49.9868 69.6715 49.3937V49.1428C69.4434 49.1276 69.1088 49.12 68.6678 49.12C68.8807 49.5914 69.1697 50.1237 69.5346 50.7167Z" fill="#00923F"/>
<path d="M33.9951 42.7185H23.801C23.265 42.7185 22.8301 42.2835 22.8301 41.7476C22.8301 41.2117 23.265 40.7767 23.801 40.7767H33.9951C34.531 40.7767 34.966 41.2117 34.966 41.7476C34.966 42.2835 34.531 42.7185 33.9951 42.7185Z" fill="#00923F"/>
<path d="M33.9951 50.4854H23.801C23.265 50.4854 22.8301 50.0505 22.8301 49.5146C22.8301 48.9786 23.265 48.5437 23.801 48.5437H33.9951C34.531 48.5437 34.966 48.9786 34.966 49.5146C34.966 50.0505 34.531 50.4854 33.9951 50.4854Z" fill="#00923F"/>
<path d="M33.9951 58.2524H23.801C23.265 58.2524 22.8301 57.8175 22.8301 57.2815C22.8301 56.7456 23.265 56.3107 23.801 56.3107H33.9951C34.531 56.3107 34.966 56.7456 34.966 57.2815C34.966 57.8175 34.531 58.2524 33.9951 58.2524Z" fill="#00923F"/>
<path d="M53.4126 67.9612H23.801C23.265 67.9612 22.8301 67.5262 22.8301 66.9903C22.8301 66.4544 23.265 66.0194 23.801 66.0194H53.4126C53.9485 66.0194 54.3835 66.4544 54.3835 66.9903C54.3835 67.5262 53.9485 67.9612 53.4126 67.9612Z" fill="#00923F"/>
<path d="M43.2184 81.5534H23.801C23.265 81.5534 22.8301 81.1185 22.8301 80.5825V72.8155C22.8301 72.2796 23.265 71.8447 23.801 71.8447H43.2184C43.7544 71.8447 44.1893 72.2796 44.1893 72.8155V80.5825C44.1893 81.1185 43.7544 81.5534 43.2184 81.5534ZM24.7718 79.6117H42.2476V73.7864H24.7718V79.6117Z" fill="#00923F"/>
<path d="M3.41262 13.5922H1.47087C0.934951 13.5922 0.5 13.1573 0.5 12.6214C0.5 12.0854 0.934951 11.6505 1.47087 11.6505H3.41262C3.94854 11.6505 4.3835 12.0854 4.3835 12.6214C4.3835 13.1573 3.94854 13.5922 3.41262 13.5922Z" fill="#00923F"/>
<path d="M28.6553 13.5922H7.29607C6.76015 13.5922 6.3252 13.1573 6.3252 12.6214C6.3252 12.0854 6.76015 11.6505 7.29607 11.6505H28.6553C29.1912 11.6505 29.6262 12.0854 29.6262 12.6214C29.6262 13.1573 29.1912 13.5922 28.6553 13.5922Z" fill="#00923F"/>
<path d="M99.5291 88.3495H97.5873C97.0514 88.3495 96.6165 87.9146 96.6165 87.3786C96.6165 86.8427 97.0514 86.4078 97.5873 86.4078H99.5291C100.065 86.4078 100.5 86.8427 100.5 87.3786C100.5 87.9146 100.065 88.3495 99.5291 88.3495Z" fill="#00923F"/>
<path d="M93.7039 88.3495H72.3447C71.8087 88.3495 71.3738 87.9146 71.3738 87.3786C71.3738 86.8427 71.8087 86.4078 72.3447 86.4078H93.7039C94.2398 86.4078 94.6747 86.8427 94.6747 87.3786C94.6747 87.9146 94.2398 88.3495 93.7039 88.3495Z" fill="#00923F"/>
</g>
<defs>
<clipPath id="clip0_298_1975">
<rect width="100" height="100" fill="white" transform="translate(0.5)"/>
</clipPath>
</defs>
</svg>
