<svg width="32" height="32" viewBox="0 0 32 32" fill="none" xmlns="http://www.w3.org/2000/svg">
<path d="M25.5125 13.3254H24.5867V1.5C24.5867 1.29785 24.4651 1.11572 24.2783 1.03809C24.0918 0.961182 23.8767 1.00293 23.7336 1.146L22.0615 2.81372L20.394 1.14648C20.1987 0.951172 19.8823 0.951172 19.687 1.14648L18.0198 2.81372L16.3474 1.146C16.1519 0.950928 15.8359 0.951416 15.6409 1.14648L13.9741 2.81323L12.3074 1.14648C12.1121 0.951172 11.7957 0.951172 11.6003 1.14648L9.93408 2.81274L8.27271 1.14697C8.12939 1.00366 7.91382 0.960694 7.72778 1.03784C7.54077 1.11523 7.4187 1.29761 7.4187 1.5V13.3254H6.48755C3.94141 13.3254 1.86987 15.397 1.86987 17.9434V30.5C1.86987 30.7761 2.09375 31 2.36987 31H29.6301C29.9062 31 30.1301 30.7761 30.1301 30.5V17.9434C30.1301 15.397 28.0586 13.3254 25.5125 13.3254ZM24.5867 17.1858C24.6655 17.2537 24.7153 17.3533 24.7153 17.4644C24.7153 17.5769 24.6655 17.678 24.5867 17.7468V17.1858ZM8.4187 2.70947L9.57959 3.87329C9.67334 3.96729 9.80054 4.02026 9.93335 4.02026C10.0659 4.02026 10.1934 3.96753 10.2871 3.87378L11.9539 2.20703L13.6206 3.87378C13.8159 4.06909 14.1323 4.06909 14.3276 3.87378L15.9949 2.20654L17.6672 3.87427C17.8628 4.06934 18.1787 4.06885 18.3738 3.87378L20.0405 2.20703L21.7075 3.87378C21.9026 4.06885 22.219 4.06934 22.4141 3.87427L23.5867 2.70483V13.8254V16.5945V17.8396H8.4187V16.5945V13.8254V2.70947ZM7.29028 17.4644C7.29028 17.3535 7.34009 17.2539 7.4187 17.186V17.7468C7.34009 17.678 7.29028 17.5769 7.29028 17.4644ZM29.1301 30H2.86987V17.9434C2.86987 15.9485 4.49268 14.3254 6.48755 14.3254H7.4187V16.1194C6.7782 16.2358 6.29028 16.7932 6.29028 17.4644C6.29028 18.2227 6.90723 18.8396 7.66553 18.8396H7.9187H24.0867H24.3398C25.0984 18.8396 25.7153 18.2227 25.7153 17.4644C25.7153 16.7932 25.2274 16.2358 24.5867 16.1194V14.3254H25.5125C27.5073 14.3254 29.1301 15.9485 29.1301 17.9434V30Z" fill="black"/>
<path d="M8.98828 24.5742H5.42944C5.15332 24.5742 4.92944 24.7981 4.92944 25.0742V28.6331C4.92944 28.9092 5.15332 29.1331 5.42944 29.1331H8.98828C9.2644 29.1331 9.48828 28.9092 9.48828 28.6331V25.0742C9.48828 24.7981 9.2644 24.5742 8.98828 24.5742ZM8.48828 28.1331H5.92944V25.5742H8.48828V28.1331Z" fill="black"/>
<path d="M14.8499 24.5742H11.291C11.0149 24.5742 10.791 24.7981 10.791 25.0742V28.6331C10.791 28.9092 11.0149 29.1331 11.291 29.1331H14.8499C15.126 29.1331 15.3499 28.9092 15.3499 28.6331V25.0742C15.3499 24.7981 15.126 24.5742 14.8499 24.5742ZM14.3499 28.1331H11.791V25.5742H14.3499V28.1331Z" fill="black"/>
<path d="M20.7114 24.5742H17.1526C16.8765 24.5742 16.6526 24.7981 16.6526 25.0742V28.6331C16.6526 28.9092 16.8765 29.1331 17.1526 29.1331H20.7114C20.9875 29.1331 21.2114 28.9092 21.2114 28.6331V25.0742C21.2114 24.7981 20.9875 24.5742 20.7114 24.5742ZM20.2114 28.1331H17.6526V25.5742H20.2114V28.1331Z" fill="black"/>
<path d="M26.573 24.5742H23.0142C22.738 24.5742 22.5142 24.7981 22.5142 25.0742V28.6331C22.5142 28.9092 22.738 29.1331 23.0142 29.1331H26.573C26.8491 29.1331 27.073 28.9092 27.073 28.6331V25.0742C27.073 24.7981 26.8491 24.5742 26.573 24.5742ZM26.073 28.1331H23.5142V25.5742H26.073V28.1331Z" fill="black"/>
<path d="M26.573 20.6045H5.42944C5.15332 20.6045 4.92944 20.8284 4.92944 21.1045V23.2444C4.92944 23.5205 5.15332 23.7444 5.42944 23.7444H26.573C26.8491 23.7444 27.073 23.5205 27.073 23.2444V21.1045C27.073 20.8284 26.8491 20.6045 26.573 20.6045ZM26.073 22.7444H5.92944V21.6045H26.073V22.7444Z" fill="black"/>
<path d="M11.1211 8.27637H20.8789C21.155 8.27637 21.3789 8.05249 21.3789 7.77637C21.3789 7.50024 21.155 7.27637 20.8789 7.27637H11.1211C10.845 7.27637 10.6211 7.50024 10.6211 7.77637C10.6211 8.05249 10.845 8.27637 11.1211 8.27637Z" fill="black"/>
<path d="M11.1211 11.301H20.8789C21.155 11.301 21.3789 11.0771 21.3789 10.801C21.3789 10.5249 21.155 10.301 20.8789 10.301H11.1211C10.845 10.301 10.6211 10.5249 10.6211 10.801C10.6211 11.0771 10.845 11.301 11.1211 11.301Z" fill="black"/>
<path d="M11.1211 14.3254H18.1643C18.4404 14.3254 18.6643 14.1016 18.6643 13.8254C18.6643 13.5493 18.4404 13.3254 18.1643 13.3254H11.1211C10.845 13.3254 10.6211 13.5493 10.6211 13.8254C10.6211 14.1016 10.845 14.3254 11.1211 14.3254Z" fill="black"/>
</svg>
