<svg width="32" height="32" viewBox="0 0 32 32" fill="none" xmlns="http://www.w3.org/2000/svg">
<g clip-path="url(#clip0_466_1852)">
<path fill-rule="evenodd" clip-rule="evenodd" d="M18.8119 22.6471C18.7214 22.6471 18.6312 22.6103 18.5646 22.5368C18.437 22.3966 18.4444 22.1767 18.5809 22.0451L22.3547 18.4213C23.12 17.6387 24.3257 17.5156 25.2239 18.1287C25.3794 18.2354 25.4218 18.4513 25.3182 18.6113C25.215 18.7711 25.0049 18.8149 24.849 18.7081C24.2161 18.2762 23.367 18.3642 22.8288 18.9168C22.8259 18.9201 22.8317 18.9142 22.8288 18.9168L19.0424 22.5528C18.9776 22.6162 18.8944 22.6471 18.8119 22.6471Z" fill="black"/>
<path fill-rule="evenodd" clip-rule="evenodd" d="M7.45708 32.0002C7.36924 32.0002 7.28235 31.9651 7.21791 31.8982L1.7933 26.3244C1.72989 26.2593 1.69409 26.1704 1.69409 26.0782C1.69409 25.9859 1.72989 25.8971 1.7933 25.8319L4.80543 22.7373C5.96203 21.5494 7.49916 20.895 9.13411 20.895C9.3563 20.895 9.58182 20.9071 9.80276 20.9325L19.5646 22.0339C20.4709 22.1162 21.2188 22.7849 21.439 23.6717L27.0939 18.2415C27.5242 17.802 28.0953 17.5591 28.7022 17.5591C29.3116 17.5591 29.8842 17.8036 30.3154 18.2461C30.7464 18.6881 30.9835 19.2767 30.9835 19.9027C30.9835 20.5287 30.7464 21.1172 30.3154 21.5602L22.4461 29.6455C21.6837 30.4298 20.6693 30.861 19.5912 30.861C19.5408 30.861 19.4895 30.8602 19.4392 30.8585L10.4052 30.6105L7.60183 31.9662C7.55503 31.9898 7.50588 32.0002 7.45708 32.0002ZM2.51106 26.0785L7.52833 31.2341L10.1891 29.9468C10.237 29.923 10.2898 29.9126 10.3421 29.9134L19.4601 30.1639C19.5055 30.1656 19.5479 30.1664 19.5897 30.1664C20.4874 30.1664 21.3315 29.807 21.9665 29.1546L29.8358 21.0683C30.1389 20.7577 30.3054 20.3438 30.3054 19.9033C30.3054 19.4629 30.1389 19.0497 29.8358 18.7383C29.5332 18.4269 29.1301 18.2557 28.7016 18.2557C28.2734 18.2557 27.8705 18.4269 27.5678 18.7383C27.5649 18.7408 27.5708 18.7358 27.5678 18.7383L21.3851 24.6749C21.2868 24.7697 21.143 24.7956 21.0195 24.7401C20.896 24.6845 20.8157 24.559 20.8157 24.4203L20.8161 24.0275C20.7324 23.3329 20.1823 22.7874 19.502 22.7273C19.4991 22.7273 19.505 22.7273 19.502 22.7273L9.7283 21.6241C9.53165 21.602 9.33145 21.5906 9.13354 21.5906C7.6793 21.5906 6.31195 22.1729 5.28342 23.2294L2.51106 26.0785Z" fill="black"/>
<path fill-rule="evenodd" clip-rule="evenodd" d="M20.4965 23.1261C20.4059 23.1261 20.3158 23.0886 20.2491 23.0159C20.122 22.8749 20.1289 22.6548 20.2653 22.5234L24.9004 18.0731C25.7255 17.2296 27.0297 17.1578 27.9369 17.907C28.0823 18.0277 28.1055 18.2463 27.9885 18.3962C27.8711 18.546 27.6583 18.5699 27.5124 18.4492C26.8742 17.9217 25.9554 17.9729 25.3753 18.5699C25.3723 18.5724 25.3782 18.5666 25.3753 18.5699L20.7272 23.0326C20.6621 23.0954 20.5794 23.1261 20.4965 23.1261Z" fill="black"/>
<path fill-rule="evenodd" clip-rule="evenodd" d="M15.573 12.8152C13.4643 12.8152 11.7484 11.0517 11.7484 8.88589C11.7484 6.71908 13.4638 4.95569 15.573 4.95569C17.6822 4.95569 19.3972 6.71923 19.3972 8.88589C19.3972 11.0522 17.6818 12.8152 15.573 12.8152ZM15.573 5.65203C13.8376 5.65203 12.4256 7.10243 12.4256 8.88604C12.4256 10.6687 13.8376 12.1192 15.573 12.1192C17.3084 12.1192 18.7204 10.6688 18.7204 8.88604C18.7204 7.10242 17.3084 5.65203 15.573 5.65203Z" fill="black"/>
<path fill-rule="evenodd" clip-rule="evenodd" d="M15.573 12.8152C13.4643 12.8152 11.7484 11.0517 11.7484 8.88589C11.7484 6.71908 13.4638 4.95569 15.573 4.95569C17.6822 4.95569 19.3972 6.71923 19.3972 8.88589C19.3972 11.0522 17.6818 12.8152 15.573 12.8152ZM15.573 5.65203C13.8376 5.65203 12.4256 7.10243 12.4256 8.88604C12.4256 10.6687 13.8376 12.1192 15.573 12.1192C17.3084 12.1192 18.7204 10.6688 18.7204 8.88604C18.7204 7.10242 17.3084 5.65203 15.573 5.65203Z" fill="black"/>
<path fill-rule="evenodd" clip-rule="evenodd" d="M15.5729 10.9129C14.485 10.9129 13.5999 10.0038 13.5999 8.88636C13.5999 7.76771 14.485 6.85907 15.5729 6.85907C16.6608 6.85907 17.5455 7.76823 17.5455 8.88636C17.5456 10.0038 16.6608 10.9129 15.5729 10.9129ZM15.5729 7.55415C14.8584 7.55415 14.2771 8.15187 14.2771 8.88607C14.2771 9.61976 14.8588 10.2172 15.5729 10.2172C16.287 10.2172 16.8687 9.61946 16.8687 8.88607C16.8689 8.15142 16.2875 7.55415 15.5729 7.55415Z" fill="black"/>
<path fill-rule="evenodd" clip-rule="evenodd" d="M15.5729 10.9129C14.485 10.9129 13.5999 10.0038 13.5999 8.88636C13.5999 7.76771 14.485 6.85907 15.5729 6.85907C16.6608 6.85907 17.5455 7.76823 17.5455 8.88636C17.5456 10.0038 16.6608 10.9129 15.5729 10.9129ZM15.5729 7.55415C14.8584 7.55415 14.2771 8.15187 14.2771 8.88607C14.2771 9.61976 14.8588 10.2172 15.5729 10.2172C16.287 10.2172 16.8687 9.61946 16.8687 8.88607C16.8689 8.15142 16.2875 7.55415 15.5729 7.55415Z" fill="black"/>
<path fill-rule="evenodd" clip-rule="evenodd" d="M16.7945 17.3913H14.3515C14.1646 17.3913 14.0131 17.2356 14.0131 17.0431V15.613C13.3176 15.4426 12.6591 15.1614 12.049 14.7741L11.0627 15.7875C10.9993 15.8526 10.9131 15.8894 10.8235 15.8894C10.7338 15.8894 10.6475 15.8526 10.5842 15.7875L8.85658 14.012C8.72452 13.8768 8.72452 13.6564 8.85658 13.5203L9.84288 12.5069C9.46544 11.8799 9.19172 11.2033 9.02592 10.4883H7.63428C7.44745 10.4883 7.2959 10.3327 7.2959 10.1401V7.62999C7.2959 7.43747 7.44745 7.28178 7.63428 7.28178L9.02637 7.28193C9.19216 6.5678 9.46626 5.89118 9.84362 5.26423L8.85658 4.25003C8.72452 4.11391 8.72452 3.89356 8.85658 3.75832L10.5842 1.98282C10.6477 1.91764 10.7338 1.88088 10.8235 1.88088C10.9131 1.88088 10.9994 1.91764 11.0627 1.98282L12.0497 2.99703C12.6599 2.60874 13.3184 2.32749 14.0134 2.15726V0.727234C14.0134 0.534787 14.1649 0.379028 14.3517 0.379028H16.7949C16.9822 0.379028 17.1338 0.534787 17.1338 0.727234V2.15726C17.8293 2.32667 18.4881 2.60896 19.0979 2.99621L20.0847 1.98283C20.2167 1.84663 20.4316 1.84663 20.5636 1.98283L22.2912 3.75832C22.4233 3.89356 22.4233 4.11391 22.2912 4.25003L21.3045 5.2635C21.6818 5.89037 21.9561 6.567 22.1217 7.28194H23.5135C23.7004 7.28194 23.8519 7.4377 23.8519 7.63015V10.1404C23.8519 10.3328 23.7004 10.4885 23.5135 10.4885L22.1217 10.4884C21.9564 11.2033 21.6826 11.8809 21.3052 12.5078L22.2911 13.5204C22.4231 13.6565 22.4231 13.877 22.2911 14.0121L20.5633 15.7877C20.4999 15.8528 20.4138 15.8896 20.3237 15.8896C20.2339 15.8896 20.1477 15.8528 20.0845 15.7877L19.0987 14.7742C18.4886 15.1625 17.8296 15.4438 17.1338 15.614V17.0431C17.1333 17.2356 16.9818 17.3913 16.7945 17.3913ZM14.6898 16.6959H16.4563V15.3327C16.4563 15.1666 16.5708 15.0238 16.73 14.9921C17.5294 14.8323 18.278 14.513 18.9548 14.0426C19.0889 13.9487 19.2688 13.9666 19.3838 14.0844L20.3234 15.0502L21.5725 13.7671L20.6329 12.8013C20.5179 12.6842 20.5009 12.4988 20.5915 12.3601C21.0493 11.6647 21.3605 10.8958 21.5156 10.0749C21.5465 9.91079 21.6858 9.79356 21.8478 9.79356L23.1742 9.79342V7.97783L21.8475 7.97768C21.6858 7.97768 21.5465 7.86046 21.5156 7.69636C21.3596 6.87623 21.0488 6.10733 20.5906 5.41195C20.4995 5.27339 20.5165 5.0884 20.632 4.97066L21.5724 4.00392L20.3233 2.72094L19.3829 3.68768C19.2683 3.8049 19.0884 3.82284 18.9539 3.72946C18.2772 3.25901 17.5288 2.9393 16.7298 2.77992C16.5706 2.74744 16.4561 2.60468 16.4561 2.43851V1.07536L14.6898 1.07522V2.43836C14.6898 2.60453 14.5753 2.74803 14.4161 2.77978C13.6179 2.9396 12.8696 3.25982 12.1928 3.73027C12.0583 3.8241 11.8784 3.80631 11.7633 3.68842L10.8222 2.72094L9.57306 4.00392L10.5143 4.97147C10.6287 5.08869 10.6462 5.27405 10.5552 5.41269C10.097 6.10814 9.78588 6.87608 9.6299 7.69718C9.5986 7.86046 9.4596 7.97769 9.29764 7.97769H7.97096V9.79327L9.29735 9.79342C9.45945 9.79342 9.59875 9.91064 9.62961 10.0747C9.78514 10.8957 10.0963 11.6646 10.5546 12.3592C10.6457 12.4977 10.6282 12.6827 10.5136 12.8004L9.57321 13.7671L10.8224 15.0502L11.7628 14.0834C11.8778 13.9662 12.0577 13.9483 12.1917 14.0416C12.8689 14.5121 13.6168 14.8318 14.4158 14.9912C14.5747 15.0228 14.6895 15.1664 14.6895 15.3325L14.6898 16.6959Z" fill="black"/>
<path fill-rule="evenodd" clip-rule="evenodd" d="M28.4367 4.86941C27.1299 4.86941 26.0668 3.77711 26.0668 2.43507C26.0668 1.0923 27.1298 0 28.4367 0C29.7431 0 30.8062 1.0923 30.8062 2.43507C30.8062 3.7771 29.7431 4.86941 28.4367 4.86941ZM28.4367 0.695384C27.5032 0.695384 26.7441 1.47551 26.7441 2.43508C26.7441 3.39377 27.5032 4.17404 28.4367 4.17404C29.3697 4.17404 30.1291 3.39392 30.1291 2.43508C30.1291 1.47551 29.3699 0.695384 28.4367 0.695384Z" fill="black"/>
<path fill-rule="evenodd" clip-rule="evenodd" d="M4.74029 19.8262C3.62031 19.8262 2.70923 18.8896 2.70923 17.7392C2.70923 16.5881 3.62045 15.6523 4.74029 15.6523C5.86035 15.6523 6.77143 16.5881 6.77143 17.7392C6.77143 18.8896 5.86035 19.8262 4.74029 19.8262ZM4.74029 16.3476C3.99369 16.3476 3.3863 16.9721 3.3863 17.7392C3.3863 18.5064 3.99369 19.13 4.74029 19.13C5.48697 19.13 6.09428 18.5064 6.09428 17.7392C6.09428 16.9721 5.48697 16.3476 4.74029 16.3476Z" fill="black"/>
<path fill-rule="evenodd" clip-rule="evenodd" d="M3.04767 5.21746C1.92768 5.21746 1.0166 4.28084 1.0166 3.13052C1.0166 1.97938 1.92783 1.04358 3.04767 1.04358C4.16772 1.04358 5.07873 1.97938 5.07873 3.13052C5.07873 4.28084 4.16802 5.21746 3.04767 5.21746ZM3.04767 1.73894C2.30106 1.73894 1.69367 2.36331 1.69367 3.13051C1.69367 3.89764 2.30135 4.52207 3.04767 4.52207C3.79398 4.52207 4.40166 3.89764 4.40166 3.13051C4.40166 2.36331 3.79427 1.73894 3.04767 1.73894Z" fill="black"/>
<path fill-rule="evenodd" clip-rule="evenodd" d="M19.379 26.3945C19.3481 26.3945 19.3173 26.3937 19.286 26.3919L12.4168 26.0822C12.23 26.0734 12.0853 25.9111 12.0935 25.7195C12.102 25.5271 12.2613 25.3803 12.4464 25.3868L19.3156 25.6975C19.7389 25.717 20.1476 25.5443 20.4369 25.2263C20.7261 24.9082 20.8653 24.4779 20.8182 24.0459C20.7975 23.8552 20.9312 23.6832 21.1171 23.662C21.304 23.6406 21.4701 23.7776 21.4909 23.9691C21.5594 24.6036 21.3556 25.2351 20.9311 25.7012C20.5279 26.1453 19.9664 26.3945 19.379 26.3945Z" fill="black"/>
<path fill-rule="evenodd" clip-rule="evenodd" d="M10.3333 30.6086C10.2467 30.6086 10.1602 30.5751 10.094 30.5066L3.90813 24.151C3.77607 24.0148 3.77607 23.7945 3.90813 23.6592C4.04056 23.5231 4.25464 23.5231 4.38699 23.6592L10.5729 30.0149C10.7049 30.151 10.7049 30.3715 10.5729 30.5066C10.5063 30.5751 10.4197 30.6086 10.3333 30.6086Z" fill="black"/>
</g>
<defs>
<clipPath id="clip0_466_1852">
<rect width="32" height="32" fill="white"/>
</clipPath>
</defs>
</svg>
