<svg width="32" height="32" viewBox="0 0 32 32" fill="none" xmlns="http://www.w3.org/2000/svg">
<g clip-path="url(#clip0_466_1776)">
<path d="M29.6084 5.27075H27.4751C27.3335 5.27075 27.198 5.32715 27.0979 5.427L25.3418 7.18335L24.2749 6.1167V0.470703C24.2749 0.17627 24.0361 -0.0625 23.7417 -0.0625H21.6084C21.4668 -0.0625 21.3313 -0.00634762 21.2312 0.09375L19.4751 1.8501L17.7188 0.09375C17.6187 -0.00634762 17.4832 -0.0625 17.3418 -0.0625H15.2083C15.0669 -0.0625 14.9312 -0.00634762 14.8313 0.09375L13.075 1.8501L11.3188 0.09375C11.2188 -0.00634762 11.083 -0.0625 10.9417 -0.0625H8.80835C8.66699 -0.0625 8.53125 -0.00634762 8.43115 0.09375L6.67505 1.8501L4.9187 0.09375C4.81885 -0.00634762 4.68311 -0.0625 4.54175 -0.0625H2.4082C2.11377 -0.0625 1.875 0.17627 1.875 0.470703V26.0708C1.875 26.3655 2.11377 26.6043 2.4082 26.6043H4.54175C4.68311 26.604 4.8186 26.5479 4.9187 26.448L6.67505 24.6917L7.7417 25.7583V31.4043C7.7417 31.6987 7.98047 31.9375 8.2749 31.9375H10.4082C10.5498 31.9375 10.6853 31.8814 10.7854 31.7813L12.5415 30.0249L14.2979 31.7813C14.398 31.8814 14.5334 31.9375 14.6748 31.9375H16.8084C16.9497 31.9375 17.0852 31.8814 17.1853 31.7813L18.9417 30.0249L20.6978 31.7813C20.7979 31.8814 20.9334 31.9375 21.075 31.9375H23.2083C23.3496 31.9375 23.4854 31.8814 23.5852 31.7813L25.3416 30.0249L27.0977 31.7813C27.1978 31.8814 27.3335 31.9375 27.4749 31.9375H29.6082C29.9028 31.9375 30.1414 31.6987 30.1414 31.4043V5.8042C30.1416 5.50952 29.9028 5.27075 29.6084 5.27075ZM6.29785 23.5605L4.3208 25.5376H2.94165V1.00415H4.3208L6.29785 2.9812C6.5061 3.18945 6.84375 3.18945 7.052 2.9812L9.02905 1.00415H10.7207L12.6978 2.9812C12.906 3.18945 13.2437 3.18945 13.4519 2.9812L15.429 1.00415H17.1209L19.0979 2.9812C19.3062 3.18945 19.6438 3.18945 19.8521 2.9812L21.8291 1.00415H23.2083V25.5376H21.8291L19.8521 23.5605C19.6438 23.3523 19.3062 23.3523 19.0979 23.5605L17.1209 25.5376H15.4292L13.4521 23.5605C13.2439 23.3523 12.9063 23.3523 12.698 23.5605L10.7209 25.5376H9.02905L7.052 23.5605C6.84375 23.3523 6.5061 23.3523 6.29785 23.5605ZM29.075 30.8709H27.6958L25.7188 28.8938C25.5105 28.6856 25.1729 28.6856 24.9646 28.8938L22.9876 30.8709H21.2959L19.3188 28.8938C19.1106 28.6856 18.773 28.6856 18.5647 28.8938L16.5876 30.8709H14.8958L12.9187 28.8938C12.7105 28.6856 12.3728 28.6856 12.1646 28.8938L10.1875 30.8709H8.80835V26.6043H10.9417C11.083 26.6043 11.2188 26.5479 11.3186 26.448L13.075 24.6917L14.8313 26.448C14.9312 26.5479 15.0669 26.6043 15.2083 26.6043H17.3416C17.4829 26.6043 17.6187 26.5479 17.7188 26.448L19.4749 24.6917L21.2312 26.448C21.3311 26.5479 21.4668 26.6043 21.6082 26.6043H23.7415C24.0361 26.6043 24.2749 26.3655 24.2749 26.0708V7.625L24.9644 8.31445C25.1726 8.52271 25.5103 8.52271 25.7185 8.31445L27.6958 6.3374H29.075V30.8709Z" fill="black"/>
<path d="M8.80835 14.8709V10.0708H10.4082V9.00415H6.1416V10.0708H7.7417V14.8709H8.80835Z" fill="black"/>
<path d="M15.2083 14.8709V11.6709C15.2085 11.5881 15.1892 11.5063 15.1523 11.4324L14.0857 9.29907C13.9954 9.11816 13.8103 9.00415 13.6084 9.00415H12.5415C12.3394 9.00415 12.1545 9.11816 12.0642 9.29907L10.9976 11.4324C10.9607 11.5063 10.9414 11.5881 10.9417 11.6709V14.8709H12.0083V13.2708H14.1416V14.8709H15.2083ZM12.0083 12.2041V11.7966L12.8713 10.0708H13.2788L14.1416 11.7966V12.2041H12.0083Z" fill="black"/>
<path d="M20.0083 10.0708V9.00415H18.9417C18.7307 9.00415 18.5398 9.12817 18.4541 9.32104L17.875 10.6245L17.2959 9.32104C17.2102 9.12842 17.019 9.00415 16.8083 9.00415H15.7417V10.0708H16.4617L17.2915 11.9375L16.4617 13.8042H15.7417V14.8709H16.8083C17.019 14.8709 17.2102 14.7468 17.2959 14.5542L17.875 13.2507L18.4541 14.5542C18.5398 14.7468 18.731 14.8709 18.9417 14.8709H20.0083V13.8042H19.2883L18.4585 11.9375L19.2883 10.0708H20.0083Z" fill="black"/>
<path d="M5.07495 15.9375H21.075V17.0042H5.07495V15.9375Z" fill="black"/>
<path d="M5.07495 6.87085H21.075V7.9375H5.07495V6.87085Z" fill="black"/>
</g>
<defs>
<clipPath id="clip0_466_1776">
<rect width="32" height="32" fill="white"/>
</clipPath>
</defs>
</svg>
