<svg width="32" height="32" viewBox="0 0 32 32" fill="none" xmlns="http://www.w3.org/2000/svg">
<g clip-path="url(#clip0_466_1783)">
<path d="M18.3652 31.348C18.3652 31.4982 18.4869 31.62 18.6372 31.62H27.744C27.7446 31.62 27.7452 31.6201 27.7458 31.6201C28.5744 31.6201 29.2486 30.946 29.2486 30.1173V23.8201C29.2486 23.6699 29.1269 23.5481 28.9766 23.5481C28.8264 23.5481 28.7046 23.6699 28.7046 23.8201V30.1173C28.7046 30.6458 28.2748 31.0759 27.7462 31.0761C27.746 31.0761 27.7459 31.0761 27.7457 31.0761H27.745C27.2166 31.0756 26.787 30.6457 26.787 30.1174V28.9419C26.787 28.7917 26.6653 28.6699 26.515 28.6699H19.5439C19.3936 28.6699 19.2719 28.7917 19.2719 28.9419C19.2719 29.0921 19.3936 29.2139 19.5439 29.2139H26.243V30.1173C26.243 30.4814 26.3734 30.8156 26.5897 31.076H18.6372C18.4869 31.076 18.3652 31.1978 18.3652 31.348Z" fill="black"/>
<path d="M19.6652 3.90911H25.7737C25.924 3.90911 26.0457 3.7873 26.0457 3.63711C26.0457 3.48693 25.924 3.36511 25.7737 3.36511H19.6652C19.5149 3.36511 19.3932 3.48693 19.3932 3.63711C19.3932 3.7873 19.5149 3.90911 19.6652 3.90911Z" fill="black"/>
<path d="M19.6652 6.80975H25.7737C25.924 6.80975 26.0457 6.68793 26.0457 6.53775C26.0457 6.38756 25.924 6.26575 25.7737 6.26575H19.6652C19.5149 6.26575 19.3932 6.38756 19.3932 6.53775C19.3932 6.68793 19.5149 6.80975 19.6652 6.80975Z" fill="black"/>
<path d="M19.6652 8.2597H25.7737C25.924 8.2597 26.0457 8.13789 26.0457 7.9877C26.0457 7.83751 25.924 7.7157 25.7737 7.7157H19.6652C19.5149 7.7157 19.3932 7.83751 19.3932 7.9877C19.3932 8.13789 19.5149 8.2597 19.6652 8.2597Z" fill="black"/>
<path d="M19.6652 9.70953H25.7737C25.924 9.70953 26.0457 9.58771 26.0457 9.43753C26.0457 9.28734 25.924 9.16553 25.7737 9.16553H19.6652C19.5149 9.16553 19.3932 9.28734 19.3932 9.43753C19.3932 9.58771 19.5149 9.70953 19.6652 9.70953Z" fill="black"/>
<path d="M21.4329 25.7479H25.7736C25.9239 25.7479 26.0456 25.626 26.0456 25.4759C26.0456 25.3257 25.9239 25.2039 25.7736 25.2039H21.4329C21.2826 25.2039 21.1609 25.3257 21.1609 25.4759C21.1609 25.626 21.2826 25.7479 21.4329 25.7479Z" fill="black"/>
<path d="M21.4329 27.1978H25.7736C25.9239 27.1978 26.0456 27.076 26.0456 26.9258C26.0456 26.7756 25.9239 26.6538 25.7736 26.6538H21.4329C21.2826 26.6538 21.1609 26.7756 21.1609 26.9258C21.1609 27.076 21.2826 27.1978 21.4329 27.1978Z" fill="black"/>
<path d="M24.88 17.6403C24.9331 17.6934 25.0026 17.72 25.0723 17.72C25.1418 17.72 25.2115 17.6934 25.2646 17.6403L28.9397 13.9654C29.0459 13.8592 29.0459 13.687 28.9397 13.5808C28.8335 13.4745 28.6613 13.4745 28.5551 13.5808L24.88 17.2557C24.7737 17.3619 24.7737 17.5341 24.88 17.6403Z" fill="black"/>
<path d="M26.5505 14.1829C26.5505 13.5917 26.0694 13.1106 25.478 13.1106C24.8866 13.1106 24.4056 13.5917 24.4056 14.1829C24.4056 14.7743 24.8867 15.2554 25.478 15.2554C26.0693 15.2554 26.5505 14.7743 26.5505 14.1829ZM24.9495 14.1829C24.9495 13.8915 25.1865 13.6545 25.478 13.6545C25.7694 13.6545 26.0065 13.8915 26.0065 14.1829C26.0065 14.4743 25.7694 14.7114 25.478 14.7114C25.1865 14.7114 24.9495 14.4743 24.9495 14.1829Z" fill="black"/>
<path d="M27.2694 17.0378C27.2694 17.6291 27.7505 18.1103 28.3417 18.1103C28.9332 18.1103 29.4143 17.6291 29.4143 17.0378C29.4143 16.4465 28.9332 15.9655 28.3417 15.9655C27.7504 15.9653 27.2694 16.4464 27.2694 17.0378ZM28.8703 17.0378C28.8703 17.3292 28.6331 17.5663 28.3417 17.5663C28.0503 17.5663 27.8133 17.3292 27.8133 17.0378C27.8133 16.7464 28.0503 16.5093 28.3417 16.5093C28.6333 16.5093 28.8703 16.7464 28.8703 17.0378Z" fill="black"/>
<path d="M1.13514 16.3481H16.1708V17.7794C15.8344 17.7046 15.4855 17.6639 15.127 17.6639C12.7924 17.6639 10.8417 19.3363 10.408 21.5457L8.02112 22.1673C6.87786 22.4649 5.8752 23.1034 5.12181 24.0136C5.03669 24.1164 4.95552 24.228 4.87648 24.3438C4.70176 24.0219 4.36074 23.8028 3.96949 23.8028H3.57834C3.51509 23.4155 3.18058 23.1182 2.77568 23.1182H1.1697C0.719784 23.1182 0.353704 23.4843 0.353704 23.9342V30.8352C0.353704 31.2852 0.719677 31.6512 1.1697 31.6512H2.77557C3.15114 31.6512 3.46496 31.3948 3.55957 31.0488H3.96938C4.49312 31.0488 4.92608 30.6559 4.99114 30.1496C5.44533 30.2194 5.88949 30.3423 6.3136 30.523L7.95413 31.2215C8.75189 31.5612 9.59456 31.7333 10.4599 31.7333C10.4854 31.7333 10.5111 31.7331 10.5366 31.7328L12.3101 31.7126C13.1168 31.7032 13.9302 31.6394 14.7277 31.5227L17.152 31.1683C17.4882 31.1191 17.7837 30.9412 17.9842 30.6669C18.1846 30.3928 18.2647 30.0573 18.2094 29.7199C18.1945 29.628 18.1697 29.5395 18.1357 29.4548C18.2074 29.3928 18.2734 29.3231 18.3308 29.2446C18.5312 28.9705 18.6113 28.635 18.5558 28.2974C18.5407 28.2053 18.514 28.1157 18.4792 28.0297C18.6097 27.9468 18.7253 27.8402 18.8196 27.7114C19.0201 27.4373 19.1002 27.1017 19.0448 26.7641C18.9856 26.4029 18.7726 26.1023 18.4843 25.9164C19.4117 25.0136 19.9371 23.7827 19.9371 22.474C19.9371 20.378 18.5889 18.5919 16.7147 17.9344V16.348H17.2983C17.7643 16.348 18.1435 15.9688 18.1435 15.5027V4.12751C18.1435 3.66148 17.7644 3.28228 17.2983 3.28228H16.7147V1.77401C16.7147 1.24761 17.1429 0.819028 17.6694 0.818815L29.0507 0.811455C28.8348 1.07172 28.7045 1.40569 28.7045 1.76964V11.1596C28.1497 10.9351 27.5442 10.8102 26.9098 10.8102C24.263 10.8102 22.1098 12.9636 22.1098 15.6104C22.1098 17.7495 23.5164 19.5657 25.4529 20.184V22.6349C25.4529 23.4382 26.1065 24.0919 26.9098 24.0919C27.7132 24.0919 28.3667 23.4383 28.3667 22.6349V20.1839C30.3033 19.5656 31.71 17.7494 31.71 15.6103C31.71 13.8122 30.7156 12.2428 29.2484 11.4205V3.42159H31.4379C31.5882 3.42159 31.7099 3.29977 31.7099 3.14959V1.76953C31.7099 0.941588 31.0367 0.267882 30.209 0.266815C30.2083 0.266815 30.2077 0.266602 30.2071 0.266602C30.207 0.266602 30.207 0.266602 30.2069 0.266602L17.6691 0.274815C16.8429 0.275242 16.1707 0.947775 16.1707 1.77401V3.28228H15.2121V2.59076C15.2121 1.98212 14.7169 1.48687 14.1082 1.48687H12.4695C12.4667 1.48687 12.4636 1.48687 12.4607 1.48697C11.8427 1.47855 11.3376 1.97689 11.3376 2.59236V3.29583L5.84426 3.2826V2.59065C5.84426 1.98202 5.34912 1.48676 4.74037 1.48676H3.10186C3.09898 1.48676 3.09589 1.48676 3.09301 1.48687C2.48277 1.47844 1.96992 1.97679 1.96992 2.59225V3.28495L1.13514 3.28207C0.669117 3.28207 0.289917 3.66127 0.289917 4.1273V15.5027C0.289917 15.9689 0.66901 16.3481 1.13514 16.3481ZM9.81621 24.1562L9.90666 24.4136L10.6471 24.2207C10.886 24.8329 11.2482 25.3936 11.7156 25.8645L10.0026 25.6592C9.61728 25.6132 9.45898 25.3094 9.44064 25.0633C9.42218 24.8162 9.53002 24.5169 9.88832 24.4184L9.81621 24.1562ZM3.04757 30.8353C3.04757 30.9853 2.92554 31.1074 2.77557 31.1074H1.1697C1.01973 31.1074 0.897704 30.9853 0.897704 30.8353V23.9343C0.897704 23.7844 1.01973 23.6623 1.1697 23.6623H2.77557C2.92554 23.6623 3.04757 23.7844 3.04757 23.9343V30.8353ZM4.45664 30.0177C4.45664 30.2863 4.23808 30.5049 3.96938 30.5049H3.59146V24.3469H3.96938C4.23797 24.3469 4.45664 24.5655 4.45664 24.8342V30.0177ZM18.3806 27.3903C18.2669 27.5457 18.0993 27.6467 17.9088 27.6746L15.4843 28.0291C14.7095 28.1421 13.9204 28.2041 13.139 28.2132L11.3136 28.2342C11.1633 28.2359 11.043 28.3591 11.0447 28.5093C11.0465 28.6584 11.1679 28.7781 11.3166 28.7781H11.3198L13.1453 28.7571C13.9508 28.7477 14.7643 28.6839 15.5629 28.5672L17.968 28.2155C17.9918 28.27 18.0096 28.3277 18.0195 28.3881C18.0507 28.578 18.0052 28.7681 17.8916 28.9236C17.7779 29.0791 17.6103 29.1801 17.4198 29.208L14.9954 29.5624C14.222 29.6755 13.4329 29.7374 12.65 29.7465L11.1779 29.7636C11.0277 29.7654 10.9074 29.8885 10.9091 30.0387C10.9109 30.1878 11.0323 30.3075 11.181 30.3075H11.1843L12.6564 30.2904C13.4634 30.281 14.2768 30.2172 15.0741 30.1005L17.4987 29.7462C17.5491 29.7388 17.5984 29.7275 17.6468 29.7144C17.6564 29.7459 17.6676 29.7766 17.6732 29.8102C17.7043 30.0002 17.6589 30.1903 17.5453 30.3456C17.4316 30.5011 17.264 30.602 17.0735 30.6299L14.6492 30.9844C13.8755 31.0974 13.0865 31.1594 12.3039 31.1685L10.5304 31.1887C9.71242 31.1999 8.91893 31.0409 8.16736 30.7209L6.52693 30.0224C6.03818 29.8143 5.52544 29.6761 5.00074 29.6021V25.2012L5.00181 25.1991C5.16202 24.8812 5.34336 24.599 5.54101 24.3604C6.22112 23.5386 7.12608 22.9623 8.15829 22.6937L10.3312 22.1278C10.3231 22.2422 10.3174 22.3573 10.3174 22.4737C10.3174 22.8934 10.374 23.3054 10.4789 23.7022L9.74432 23.8937C9.19552 24.0446 8.85568 24.5308 8.89856 25.1036C8.93504 25.5914 9.27072 26.1193 9.93834 26.1991L14.4237 26.7364C14.4476 26.7392 14.4718 26.7389 14.4954 26.7354L17.7073 26.266C18.0869 26.2109 18.4462 26.4733 18.5087 26.8543C18.5396 27.0447 18.4942 27.2349 18.3806 27.3903ZM19.3932 22.4741C19.3932 23.7301 18.8476 24.9054 17.8945 25.7185C17.8071 25.7125 17.7182 25.7148 17.6284 25.728L14.4523 26.1921L12.6977 25.982C12.6959 25.9807 12.6946 25.979 12.6928 25.9777C11.546 25.1793 10.8612 23.8695 10.8612 22.4741C10.8612 20.1217 12.7748 18.208 15.127 18.208C17.4794 18.208 19.3932 20.1217 19.3932 22.4741ZM27.8228 22.635C27.8228 23.1385 27.4132 23.548 26.9099 23.548C26.4064 23.548 25.9969 23.1385 25.9969 22.635V20.3226C26.2926 20.3798 26.5977 20.4108 26.9099 20.4108C27.2221 20.4108 27.527 20.3798 27.8228 20.3226V22.635ZM31.1661 15.6104C31.1661 17.9574 29.2567 19.8668 26.9099 19.8668C24.5631 19.8668 22.6538 17.9574 22.6538 15.6104C22.6538 13.2635 24.5631 11.3542 26.9099 11.3542C29.2567 11.3542 31.1661 13.2635 31.1661 15.6104ZM31.166 1.76953V2.87759H29.2485V1.76953C29.2485 1.24079 29.6785 0.810708 30.2071 0.810708C30.7359 0.810815 31.166 1.24089 31.166 1.76953ZM17.2983 15.8042H16.4453C16.4445 15.8042 16.4435 15.804 16.4427 15.804C16.4418 15.804 16.4409 15.8042 16.44 15.8042H1.13514C0.969064 15.8042 0.833917 15.6691 0.833917 15.5029V6.62212H17.5995V15.5029C17.5995 15.669 17.4643 15.8042 17.2983 15.8042ZM14.1083 2.03087C14.417 2.03087 14.6682 2.28207 14.6682 2.59076V4.55417C14.6682 4.86287 14.417 5.11407 14.1083 5.11407C13.7996 5.11407 13.5484 4.86287 13.5484 4.55417V2.59247C13.5484 2.38756 13.4924 2.19556 13.3949 2.03097H14.1083V2.03087ZM11.8816 2.59247C11.8816 2.28281 12.1334 2.03097 12.4429 2.03097C12.7523 2.03097 13.0043 2.28281 13.0043 2.59247V3.29999L11.8815 3.29732L11.8816 2.59247ZM4.74048 2.03087C5.04917 2.03087 5.30037 2.28207 5.30037 2.59076V4.55417C5.30037 4.86287 5.04917 5.11407 4.74048 5.11407C4.43178 5.11407 4.18058 4.86287 4.18058 4.55417V2.59247C4.18058 2.38756 4.12458 2.19556 4.02709 2.03097H4.74048V2.03087ZM2.51392 2.59247C2.51392 2.28281 2.76576 2.03097 3.0752 2.03097C3.38464 2.03097 3.63658 2.28281 3.63658 2.59247V3.29081L2.51381 3.28697V2.59247H2.51392ZM1.13418 3.82628L3.63658 3.83482V4.55417C3.63658 5.16282 4.13173 5.65807 4.74048 5.65807C5.34922 5.65807 5.84437 5.16292 5.84437 4.55417V3.82671L13.0044 3.84388V4.55417C13.0044 5.16282 13.4995 5.65807 14.1083 5.65807C14.7169 5.65807 15.2122 5.16292 15.2122 4.55417V3.82617H17.2983C17.4643 3.82617 17.5995 3.96132 17.5995 4.1274V6.07801H0.833917V4.12751C0.833917 3.96132 0.968957 3.82628 1.13418 3.82628Z" fill="black"/>
<path d="M9.76065 8.27197H8.67276C7.92289 8.27197 7.31287 8.882 7.31287 9.63187V13.9749C7.31287 14.1251 7.43457 14.2469 7.58487 14.2469C7.73516 14.2469 7.85687 14.1251 7.85687 13.9749V11.5313H10.5768V13.9749C10.5768 14.1251 10.6985 14.2469 10.8488 14.2469C10.9991 14.2469 11.1208 14.1251 11.1208 13.9749V9.63187C11.1207 8.882 10.5106 8.27197 9.76065 8.27197ZM7.85676 10.9874V9.63187C7.85676 9.18195 8.22273 8.81587 8.67276 8.81587H9.76065C10.2106 8.81587 10.5767 9.18195 10.5767 9.63187V10.9873L7.85676 10.9874Z" fill="black"/>
<path d="M6.41518 8.27185H3.15139C3.0011 8.27185 2.87939 8.39366 2.87939 8.54385C2.87939 8.69404 3.0011 8.81585 3.15139 8.81585H4.51129V13.9749C4.51129 14.1251 4.63299 14.2469 4.78329 14.2469C4.93358 14.2469 5.05529 14.1251 5.05529 13.9749V8.81585H6.41518C6.56547 8.81585 6.68718 8.69404 6.68718 8.54385C6.68718 8.39366 6.56547 8.27185 6.41518 8.27185Z" fill="black"/>
<path d="M15.4223 8.31078C15.2937 8.23334 15.1265 8.27505 15.0491 8.40379L13.6502 10.7314L12.2514 8.40379C12.1741 8.27505 12.0068 8.23345 11.8782 8.31078C11.7493 8.38811 11.7077 8.55526 11.7852 8.68401L13.3329 11.2594L11.7852 13.8347C11.7078 13.9635 11.7494 14.1306 11.8782 14.208C11.922 14.2343 11.9702 14.2469 12.018 14.2469C12.1104 14.2469 12.2004 14.1998 12.2514 14.1149L13.6502 11.7874L15.0491 14.1149C15.1001 14.1998 15.1901 14.2469 15.2825 14.2469C15.3301 14.2469 15.3785 14.2343 15.4223 14.208C15.5511 14.1306 15.5927 13.9635 15.5153 13.8347L13.9676 11.2594L15.5153 8.68401C15.5926 8.55526 15.551 8.38811 15.4223 8.31078Z" fill="black"/>
<path d="M17.5462 21.1321C17.7345 21.1258 17.8555 21.1478 17.9092 21.1981C17.9697 21.2421 18 21.3365 18 21.4811C18 21.6069 17.9227 21.6887 17.7681 21.7264C17.6202 21.7579 17.4387 21.7736 17.2235 21.7736C17.2235 21.9119 17.2303 22.1132 17.2437 22.3774L17.5462 22.3585C17.7345 22.3522 17.8555 22.3742 17.9092 22.4245C17.9697 22.4686 18 22.5629 18 22.7075C18 22.8019 17.9563 22.8742 17.8689 22.9245C17.7815 22.9686 17.6706 22.9906 17.5361 22.9906H17.2739C17.2874 23.4937 17.2941 23.8679 17.2941 24.1132V24.5283C17.2941 24.6352 17.2336 24.7358 17.1126 24.8302C16.9983 24.9245 16.8202 24.9717 16.5782 24.9717C16.4504 24.9717 16.3429 24.9528 16.2555 24.9151C16.1681 24.8711 16.1042 24.8239 16.0639 24.7736C15.8756 24.5472 15.6941 24.2893 15.5193 24C15.3513 23.7044 15.1697 23.3585 14.9748 22.9623C14.8 22.956 14.5445 22.9528 14.2084 22.9528C14.0134 22.9528 13.8689 22.956 13.7748 22.9623C13.7748 23.0629 13.7815 23.2201 13.795 23.434C13.8084 23.7484 13.8151 23.9717 13.8151 24.1038C13.8151 24.2358 13.8084 24.3459 13.795 24.434C13.7681 24.6226 13.7109 24.7642 13.6235 24.8585C13.5429 24.9528 13.405 25 13.2101 25C13.0555 25 12.9378 24.9591 12.8571 24.8774C12.7765 24.7956 12.7261 24.6604 12.7059 24.4717C12.6992 24.283 12.7025 24.0818 12.716 23.8679C12.7294 23.6541 12.7395 23.5126 12.7462 23.4434C12.7597 23.3428 12.7731 23.1918 12.7866 22.9906C12.5109 22.9906 12.3092 22.9654 12.1815 22.9151C12.0605 22.8585 12 22.7421 12 22.566C12 22.4843 12.0571 22.4277 12.1714 22.3962C12.2924 22.3648 12.4908 22.3522 12.7664 22.3585L12.8168 22.3679V22.3491C12.8168 22.2233 12.8101 22.0346 12.7966 21.783C12.5143 21.783 12.3092 21.7547 12.1815 21.6981C12.0605 21.6415 12 21.5252 12 21.3491C12 21.261 12.0571 21.2044 12.1714 21.1792C12.2857 21.1478 12.484 21.1352 12.7664 21.1415L12.7462 20.8491C12.6992 20.3208 12.6756 19.8679 12.6756 19.4906C12.6756 19.3396 12.7361 19.2233 12.8571 19.1415C12.9782 19.0597 13.116 19.0189 13.2706 19.0189C13.5462 19.0189 13.7378 19.0755 13.8454 19.1887C14.0538 19.4025 14.242 19.6667 14.4101 19.9811C14.5849 20.2956 14.7832 20.6981 15.005 21.1887H15.0756C15.5731 21.1887 15.9529 21.1855 16.2151 21.1792C16.1882 20.5 16.1748 20 16.1748 19.6792C16.1748 19.4969 16.2185 19.3396 16.3059 19.2075C16.3933 19.0692 16.5277 19 16.7092 19C16.8639 19 17.0017 19.0283 17.1227 19.0849C17.2437 19.1415 17.3042 19.2358 17.3042 19.3679C17.3042 19.6321 17.2908 20.0031 17.2639 20.4811C17.2504 20.6384 17.237 20.8616 17.2235 21.1509L17.5462 21.1321ZM13.7546 20.4434C13.7681 20.7075 13.7748 20.9497 13.7748 21.1698C13.842 21.1761 13.9059 21.1792 13.9664 21.1792C14.0269 21.173 14.0874 21.173 14.1479 21.1792C14.0471 20.9717 13.916 20.7264 13.7546 20.4434ZM14.1277 21.7358C13.9664 21.7358 13.8454 21.739 13.7647 21.7453V22.3868L14.7227 22.4057L14.4101 21.7358H14.1277ZM15.5597 22.4057C15.7076 22.3994 15.9429 22.3962 16.2655 22.3962L16.2353 21.7547L15.2471 21.7453C15.3613 21.9969 15.4655 22.217 15.5597 22.4057ZM16.2151 23.6321C16.2555 23.5126 16.2756 23.3302 16.2756 23.0849V22.9811C16.1748 22.9748 16.0269 22.9717 15.8319 22.9717C15.9261 23.1667 16.0538 23.3868 16.2151 23.6321Z" fill="black"/>
</g>
<defs>
<clipPath id="clip0_466_1783">
<rect width="32" height="32" fill="white"/>
</clipPath>
</defs>
</svg>
